  0
SECTION
  2
HEADER
  9
$ACADVER
  1
AC1009
  9
$EXTMIN
 10
0.0
 20
0.0
 30
0.0
  9
$EXTMAX
 10
1000.0
 20
1000.0
 30
0.0
  9
$FILLMODE
 70
 0
  9
$SPLFRAME
 70
 1
  0
ENDSEC
  0
SECTION
  2
TABLES
  0
TABLE
  2
LAYER
 70
1
  0
LAYER
  2
0
 70
     0
 62
     7
  6
CONTINUOUS
  0
ENDTAB
  0
ENDSEC
  0
SECTION
  2
ENTITIES
  0
LINE
  8
0
 62
     0
 10
395.714
 20
129.279
 30
0.0
 11
396.106
 21
129.264
 31
0.0
  0
LINE
  8
0
 62
     0
 10
396.106
 20
129.264
 30
0.0
 11
396.498
 21
129.219
 31
0.0
  0
LINE
  8
0
 62
     0
 10
396.498
 20
129.219
 30
0.0
 11
396.882
 21
129.141
 31
0.0
  0
LINE
  8
0
 62
     0
 10
396.882
 20
129.141
 30
0.0
 11
397.26
 21
129.036
 31
0.0
  0
LINE
  8
0
 62
     0
 10
397.26
 20
129.036
 30
0.0
 11
397.63
 21
128.899
 31
0.0
  0
LINE
  8
0
 62
     0
 10
397.63
 20
128.899
 30
0.0
 11
397.983
 21
128.735
 31
0.0
  0
LINE
  8
0
 62
     0
 10
397.983
 20
128.735
 30
0.0
 11
398.328
 21
128.543
 31
0.0
  0
LINE
  8
0
 62
     0
 10
398.328
 20
128.543
 30
0.0
 11
398.653
 21
128.326
 31
0.0
  0
LINE
  8
0
 62
     0
 10
398.653
 20
128.326
 30
0.0
 11
398.963
 21
128.083
 31
0.0
  0
LINE
  8
0
 62
     0
 10
398.963
 20
128.083
 30
0.0
 11
399.249
 21
127.816
 31
0.0
  0
LINE
  8
0
 62
     0
 10
399.249
 20
127.816
 30
0.0
 11
399.517
 21
127.528
 31
0.0
  0
LINE
  8
0
 62
     0
 10
399.517
 20
127.528
 30
0.0
 11
399.761
 21
127.219
 31
0.0
  0
LINE
  8
0
 62
     0
 10
399.761
 20
127.219
 30
0.0
 11
399.979
 21
126.892
 31
0.0
  0
LINE
  8
0
 62
     0
 10
399.979
 20
126.892
 30
0.0
 11
400.17
 21
126.55
 31
0.0
  0
LINE
  8
0
 62
     0
 10
400.17
 20
126.55
 30
0.0
 11
400.336
 21
126.194
 31
0.0
  0
LINE
  8
0
 62
     0
 10
400.336
 20
126.194
 30
0.0
 11
400.47
 21
125.826
 31
0.0
  0
LINE
  8
0
 62
     0
 10
400.47
 20
125.826
 30
0.0
 11
400.576
 21
125.447
 31
0.0
  0
LINE
  8
0
 62
     0
 10
400.576
 20
125.447
 30
0.0
 11
400.653
 21
125.063
 31
0.0
  0
LINE
  8
0
 62
     0
 10
400.653
 20
125.063
 30
0.0
 11
400.699
 21
124.672
 31
0.0
  0
LINE
  8
0
 62
     0
 10
400.699
 20
124.672
 30
0.0
 11
400.717
 21
124.28
 31
0.0
  0
LINE
  8
0
 62
     0
 10
400.717
 20
124.28
 30
0.0
 11
400.717
 21
5.21727
 31
0.0
  0
LINE
  8
0
 62
     0
 10
400.717
 20
5.21727
 30
0.0
 11
400.699
 21
4.82452
 31
0.0
  0
LINE
  8
0
 62
     0
 10
400.699
 20
4.82452
 30
0.0
 11
400.653
 21
4.43452
 31
0.0
  0
LINE
  8
0
 62
     0
 10
400.653
 20
4.43452
 30
0.0
 11
400.576
 21
4.05007
 31
0.0
  0
LINE
  8
0
 62
     0
 10
400.576
 20
4.05007
 30
0.0
 11
400.47
 21
3.67111
 31
0.0
  0
LINE
  8
0
 62
     0
 10
400.47
 20
3.67111
 30
0.0
 11
400.336
 21
3.30316
 31
0.0
  0
LINE
  8
0
 62
     0
 10
400.336
 20
3.30316
 30
0.0
 11
400.17
 21
2.94624
 31
0.0
  0
LINE
  8
0
 62
     0
 10
400.17
 20
2.94624
 30
0.0
 11
399.979
 21
2.60449
 31
0.0
  0
LINE
  8
0
 62
     0
 10
399.979
 20
2.60449
 30
0.0
 11
399.761
 21
2.2779
 31
0.0
  0
LINE
  8
0
 62
     0
 10
399.761
 20
2.2779
 30
0.0
 11
399.517
 21
1.96922
 31
0.0
  0
LINE
  8
0
 62
     0
 10
399.517
 20
1.96922
 30
0.0
 11
399.249
 21
1.67983
 31
0.0
  0
LINE
  8
0
 62
     0
 10
399.249
 20
1.67983
 30
0.0
 11
398.963
 21
1.41387
 31
0.0
  0
LINE
  8
0
 62
     0
 10
398.963
 20
1.41387
 30
0.0
 11
398.653
 21
1.17133
 31
0.0
  0
LINE
  8
0
 62
     0
 10
398.653
 20
1.17133
 30
0.0
 11
398.328
 21
0.953604
 31
0.0
  0
LINE
  8
0
 62
     0
 10
398.328
 20
0.953604
 30
0.0
 11
397.983
 21
0.762056
 31
0.0
  0
LINE
  8
0
 62
     0
 10
397.983
 20
0.762056
 30
0.0
 11
397.63
 21
0.598068
 31
0.0
  0
LINE
  8
0
 62
     0
 10
397.63
 20
0.598068
 30
0.0
 11
397.26
 21
0.461641
 31
0.0
  0
LINE
  8
0
 62
     0
 10
397.26
 20
0.461641
 30
0.0
 11
396.882
 21
0.354157
 31
0.0
  0
LINE
  8
0
 62
     0
 10
396.882
 20
0.354157
 30
0.0
 11
396.498
 21
0.278364
 31
0.0
  0
LINE
  8
0
 62
     0
 10
396.498
 20
0.278364
 30
0.0
 11
396.106
 21
0.23151
 31
0.0
  0
LINE
  8
0
 62
     0
 10
396.106
 20
0.23151
 30
0.0
 11
395.714
 21
0.216352
 31
0.0
  0
LINE
  8
0
 62
     0
 10
395.714
 20
0.216352
 30
0.0
 11
5.18968
 21
0.216352
 31
0.0
  0
LINE
  8
0
 62
     0
 10
5.18968
 20
0.216352
 30
0.0
 11
4.79697
 21
0.23151
 31
0.0
  0
LINE
  8
0
 62
     0
 10
4.79697
 20
0.23151
 30
0.0
 11
4.40697
 21
0.278364
 31
0.0
  0
LINE
  8
0
 62
     0
 10
4.40697
 20
0.278364
 30
0.0
 11
4.02248
 21
0.354157
 31
0.0
  0
LINE
  8
0
 62
     0
 10
4.02248
 20
0.354157
 30
0.0
 11
3.64352
 21
0.461641
 31
0.0
  0
LINE
  8
0
 62
     0
 10
3.64352
 20
0.461641
 30
0.0
 11
3.2756
 21
0.598068
 31
0.0
  0
LINE
  8
0
 62
     0
 10
3.2756
 20
0.598068
 30
0.0
 11
2.92006
 21
0.762056
 31
0.0
  0
LINE
  8
0
 62
     0
 10
2.92006
 20
0.762056
 30
0.0
 11
2.57693
 21
0.953604
 31
0.0
  0
LINE
  8
0
 62
     0
 10
2.57693
 20
0.953604
 30
0.0
 11
2.25034
 21
1.17133
 31
0.0
  0
LINE
  8
0
 62
     0
 10
2.25034
 20
1.17133
 30
0.0
 11
1.94166
 21
1.41387
 31
0.0
  0
LINE
  8
0
 62
     0
 10
1.94166
 20
1.41387
 30
0.0
 11
1.65365
 21
1.67983
 31
0.0
  0
LINE
  8
0
 62
     0
 10
1.65365
 20
1.67983
 30
0.0
 11
1.38631
 21
1.96922
 31
0.0
  0
LINE
  8
0
 62
     0
 10
1.38631
 20
1.96922
 30
0.0
 11
1.14377
 21
2.2779
 31
0.0
  0
LINE
  8
0
 62
     0
 10
1.14377
 20
2.2779
 30
0.0
 11
0.926042
 21
2.60449
 31
0.0
  0
LINE
  8
0
 62
     0
 10
0.926042
 20
2.60449
 30
0.0
 11
0.734494
 21
2.94624
 31
0.0
  0
LINE
  8
0
 62
     0
 10
0.734494
 20
2.94624
 30
0.0
 11
0.570509
 21
3.30316
 31
0.0
  0
LINE
  8
0
 62
     0
 10
0.570509
 20
3.30316
 30
0.0
 11
0.434082
 21
3.67111
 31
0.0
  0
LINE
  8
0
 62
     0
 10
0.434082
 20
3.67111
 30
0.0
 11
0.327973
 21
4.05007
 31
0.0
  0
LINE
  8
0
 62
     0
 10
0.327973
 20
4.05007
 30
0.0
 11
0.250803
 21
4.43452
 31
0.0
  0
LINE
  8
0
 62
     0
 10
0.250803
 20
4.43452
 30
0.0
 11
0.205328
 21
4.82452
 31
0.0
  0
LINE
  8
0
 62
     0
 10
0.205328
 20
4.82452
 30
0.0
 11
0.188791
 21
5.21727
 31
0.0
  0
LINE
  8
0
 62
     0
 10
0.188791
 20
5.21727
 30
0.0
 11
0.190169
 21
124.28
 31
0.0
  0
LINE
  8
0
 62
     0
 10
0.190169
 20
124.28
 30
0.0
 11
0.205328
 21
124.672
 31
0.0
  0
LINE
  8
0
 62
     0
 10
0.205328
 20
124.672
 30
0.0
 11
0.250803
 21
125.063
 31
0.0
  0
LINE
  8
0
 62
     0
 10
0.250803
 20
125.063
 30
0.0
 11
0.327973
 21
125.447
 31
0.0
  0
LINE
  8
0
 62
     0
 10
0.327973
 20
125.447
 30
0.0
 11
0.434082
 21
125.826
 31
0.0
  0
LINE
  8
0
 62
     0
 10
0.434082
 20
125.826
 30
0.0
 11
0.570509
 21
126.194
 31
0.0
  0
LINE
  8
0
 62
     0
 10
0.570509
 20
126.194
 30
0.0
 11
0.734494
 21
126.55
 31
0.0
  0
LINE
  8
0
 62
     0
 10
0.734494
 20
126.55
 30
0.0
 11
0.926042
 21
126.892
 31
0.0
  0
LINE
  8
0
 62
     0
 10
0.926042
 20
126.892
 30
0.0
 11
1.14377
 21
127.219
 31
0.0
  0
LINE
  8
0
 62
     0
 10
1.14377
 20
127.219
 30
0.0
 11
1.38631
 21
127.528
 31
0.0
  0
LINE
  8
0
 62
     0
 10
1.38631
 20
127.528
 30
0.0
 11
1.65365
 21
127.816
 31
0.0
  0
LINE
  8
0
 62
     0
 10
1.65365
 20
127.816
 30
0.0
 11
1.94166
 21
128.083
 31
0.0
  0
LINE
  8
0
 62
     0
 10
1.94166
 20
128.083
 30
0.0
 11
2.25034
 21
128.326
 31
0.0
  0
LINE
  8
0
 62
     0
 10
2.25034
 20
128.326
 30
0.0
 11
2.57693
 21
128.543
 31
0.0
  0
LINE
  8
0
 62
     0
 10
2.57693
 20
128.543
 30
0.0
 11
2.92006
 21
128.735
 31
0.0
  0
LINE
  8
0
 62
     0
 10
2.92006
 20
128.735
 30
0.0
 11
3.2756
 21
128.899
 31
0.0
  0
LINE
  8
0
 62
     0
 10
3.2756
 20
128.899
 30
0.0
 11
3.64352
 21
129.036
 31
0.0
  0
LINE
  8
0
 62
     0
 10
3.64352
 20
129.036
 30
0.0
 11
4.02248
 21
129.141
 31
0.0
  0
LINE
  8
0
 62
     0
 10
4.02248
 20
129.141
 30
0.0
 11
4.40697
 21
129.219
 31
0.0
  0
LINE
  8
0
 62
     0
 10
4.40697
 20
129.219
 30
0.0
 11
4.79697
 21
129.264
 31
0.0
  0
LINE
  8
0
 62
     0
 10
4.79697
 20
129.264
 30
0.0
 11
5.18968
 21
129.281
 31
0.0
  0
LINE
  8
0
 62
     0
 10
5.18968
 20
129.281
 30
0.0
 11
395.714
 21
129.279
 31
0.0
  0
LINE
  8
0
 62
     0
 10
233.933
 20
21.7427
 30
0.0
 11
233.933
 21
17.0422
 31
0.0
  0
LINE
  8
0
 62
     0
 10
233.933
 20
17.0422
 30
0.0
 11
194.308
 21
17.0422
 31
0.0
  0
LINE
  8
0
 62
     0
 10
194.308
 20
17.0422
 30
0.0
 11
194.308
 21
20.2723
 31
0.0
  0
LINE
  8
0
 62
     0
 10
194.308
 20
20.2723
 30
0.0
 11
192.584
 21
20.2723
 31
0.0
  0
LINE
  8
0
 62
     0
 10
192.584
 20
20.2723
 30
0.0
 11
192.584
 21
21.1928
 31
0.0
  0
LINE
  8
0
 62
     0
 10
192.584
 20
21.1928
 30
0.0
 11
189.283
 21
21.1928
 31
0.0
  0
LINE
  8
0
 62
     0
 10
189.283
 20
21.1928
 30
0.0
 11
189.283
 21
20.2723
 31
0.0
  0
LINE
  8
0
 62
     0
 10
189.283
 20
20.2723
 30
0.0
 11
187.558
 21
20.2723
 31
0.0
  0
LINE
  8
0
 62
     0
 10
187.558
 20
20.2723
 30
0.0
 11
187.558
 21
17.0422
 31
0.0
  0
LINE
  8
0
 62
     0
 10
187.558
 20
17.0422
 30
0.0
 11
186.732
 21
17.0422
 31
0.0
  0
LINE
  8
0
 62
     0
 10
186.732
 20
17.0422
 30
0.0
 11
186.732
 21
14.242
 31
0.0
  0
LINE
  8
0
 62
     0
 10
186.732
 20
14.242
 30
0.0
 11
187.558
 21
14.242
 31
0.0
  0
LINE
  8
0
 62
     0
 10
187.558
 20
14.242
 30
0.0
 11
187.558
 21
7.97197
 31
0.0
  0
LINE
  8
0
 62
     0
 10
187.558
 20
7.97197
 30
0.0
 11
189.283
 21
7.97197
 31
0.0
  0
LINE
  8
0
 62
     0
 10
189.283
 20
7.97197
 30
0.0
 11
189.283
 21
6.99216
 31
0.0
  0
LINE
  8
0
 62
     0
 10
189.283
 20
6.99216
 30
0.0
 11
192.584
 21
6.99216
 31
0.0
  0
LINE
  8
0
 62
     0
 10
192.584
 20
6.99216
 30
0.0
 11
192.584
 21
7.97197
 31
0.0
  0
LINE
  8
0
 62
     0
 10
192.584
 20
7.97197
 30
0.0
 11
194.308
 21
7.97197
 31
0.0
  0
LINE
  8
0
 62
     0
 10
194.308
 20
7.97197
 30
0.0
 11
194.308
 21
12.4423
 31
0.0
  0
LINE
  8
0
 62
     0
 10
194.308
 20
12.4423
 30
0.0
 11
233.933
 21
12.4423
 31
0.0
  0
LINE
  8
0
 62
     0
 10
233.933
 20
12.4423
 30
0.0
 11
233.933
 21
7.74181
 31
0.0
  0
LINE
  8
0
 62
     0
 10
233.933
 20
7.74181
 30
0.0
 11
247.933
 21
7.74181
 31
0.0
  0
LINE
  8
0
 62
     0
 10
247.933
 20
7.74181
 30
0.0
 11
247.933
 21
12.4423
 31
0.0
  0
LINE
  8
0
 62
     0
 10
247.933
 20
12.4423
 30
0.0
 11
287.558
 21
12.4423
 31
0.0
  0
LINE
  8
0
 62
     0
 10
287.558
 20
12.4423
 30
0.0
 11
287.558
 21
7.97197
 31
0.0
  0
LINE
  8
0
 62
     0
 10
287.558
 20
7.97197
 30
0.0
 11
289.283
 21
7.97197
 31
0.0
  0
LINE
  8
0
 62
     0
 10
289.283
 20
7.97197
 30
0.0
 11
289.283
 21
6.99216
 31
0.0
  0
LINE
  8
0
 62
     0
 10
289.283
 20
6.99216
 30
0.0
 11
292.582
 21
6.99216
 31
0.0
  0
LINE
  8
0
 62
     0
 10
292.582
 20
6.99216
 30
0.0
 11
292.582
 21
7.97197
 31
0.0
  0
LINE
  8
0
 62
     0
 10
292.582
 20
7.97197
 30
0.0
 11
294.308
 21
7.97197
 31
0.0
  0
LINE
  8
0
 62
     0
 10
294.308
 20
7.97197
 30
0.0
 11
294.308
 21
14.242
 31
0.0
  0
LINE
  8
0
 62
     0
 10
294.308
 20
14.242
 30
0.0
 11
295.133
 21
14.242
 31
0.0
  0
LINE
  8
0
 62
     0
 10
295.133
 20
14.242
 30
0.0
 11
295.133
 21
17.0422
 31
0.0
  0
LINE
  8
0
 62
     0
 10
295.133
 20
17.0422
 30
0.0
 11
294.308
 21
17.0422
 31
0.0
  0
LINE
  8
0
 62
     0
 10
294.308
 20
17.0422
 30
0.0
 11
294.308
 21
20.2723
 31
0.0
  0
LINE
  8
0
 62
     0
 10
294.308
 20
20.2723
 30
0.0
 11
292.582
 21
20.2723
 31
0.0
  0
LINE
  8
0
 62
     0
 10
292.582
 20
20.2723
 30
0.0
 11
292.582
 21
21.1928
 31
0.0
  0
LINE
  8
0
 62
     0
 10
292.582
 20
21.1928
 30
0.0
 11
289.283
 21
21.1928
 31
0.0
  0
LINE
  8
0
 62
     0
 10
289.283
 20
21.1928
 30
0.0
 11
289.283
 21
20.2723
 31
0.0
  0
LINE
  8
0
 62
     0
 10
289.283
 20
20.2723
 30
0.0
 11
287.558
 21
20.2723
 31
0.0
  0
LINE
  8
0
 62
     0
 10
287.558
 20
20.2723
 30
0.0
 11
287.558
 21
17.0422
 31
0.0
  0
LINE
  8
0
 62
     0
 10
287.558
 20
17.0422
 30
0.0
 11
247.933
 21
17.0422
 31
0.0
  0
LINE
  8
0
 62
     0
 10
247.933
 20
17.0422
 30
0.0
 11
247.933
 21
21.7427
 31
0.0
  0
LINE
  8
0
 62
     0
 10
247.933
 20
21.7427
 30
0.0
 11
233.933
 21
21.7427
 31
0.0
  0
LINE
  8
0
 62
     0
 10
376.809
 20
21.7427
 30
0.0
 11
390.807
 21
21.7427
 31
0.0
  0
LINE
  8
0
 62
     0
 10
390.807
 20
21.7427
 30
0.0
 11
390.807
 21
7.74181
 31
0.0
  0
LINE
  8
0
 62
     0
 10
390.807
 20
7.74181
 30
0.0
 11
376.809
 21
7.74181
 31
0.0
  0
LINE
  8
0
 62
     0
 10
376.809
 20
7.74181
 30
0.0
 11
376.809
 21
21.7427
 31
0.0
  0
LINE
  8
0
 62
     0
 10
350.616
 20
21.7427
 30
0.0
 11
364.613
 21
21.7427
 31
0.0
  0
LINE
  8
0
 62
     0
 10
364.613
 20
21.7427
 30
0.0
 11
364.613
 21
7.74181
 31
0.0
  0
LINE
  8
0
 62
     0
 10
364.613
 20
7.74181
 30
0.0
 11
350.616
 21
7.74181
 31
0.0
  0
LINE
  8
0
 62
     0
 10
350.616
 20
7.74181
 30
0.0
 11
350.616
 21
21.7427
 31
0.0
  0
LINE
  8
0
 62
     0
 10
331.566
 20
21.7427
 30
0.0
 11
345.565
 21
21.7427
 31
0.0
  0
LINE
  8
0
 62
     0
 10
345.565
 20
21.7427
 30
0.0
 11
345.565
 21
7.74181
 31
0.0
  0
LINE
  8
0
 62
     0
 10
345.565
 20
7.74181
 30
0.0
 11
331.566
 21
7.74181
 31
0.0
  0
LINE
  8
0
 62
     0
 10
331.566
 20
7.74181
 30
0.0
 11
331.566
 21
21.7427
 31
0.0
  0
LINE
  8
0
 62
     0
 10
312.516
 20
21.7427
 30
0.0
 11
326.515
 21
21.7427
 31
0.0
  0
LINE
  8
0
 62
     0
 10
326.515
 20
21.7427
 30
0.0
 11
326.515
 21
7.74181
 31
0.0
  0
LINE
  8
0
 62
     0
 10
326.515
 20
7.74181
 30
0.0
 11
312.516
 21
7.74181
 31
0.0
  0
LINE
  8
0
 62
     0
 10
312.516
 20
7.74181
 30
0.0
 11
312.516
 21
21.7427
 31
0.0
  0
LINE
  8
0
 62
     0
 10
162.495
 20
21.7427
 30
0.0
 11
176.496
 21
21.7427
 31
0.0
  0
LINE
  8
0
 62
     0
 10
176.496
 20
21.7427
 30
0.0
 11
176.496
 21
7.74181
 31
0.0
  0
LINE
  8
0
 62
     0
 10
176.496
 20
7.74181
 30
0.0
 11
162.495
 21
7.74181
 31
0.0
  0
LINE
  8
0
 62
     0
 10
162.495
 20
7.74181
 30
0.0
 11
162.495
 21
21.7427
 31
0.0
  0
LINE
  8
0
 62
     0
 10
138.683
 20
21.7427
 30
0.0
 11
152.683
 21
21.7427
 31
0.0
  0
LINE
  8
0
 62
     0
 10
152.683
 20
21.7427
 30
0.0
 11
152.683
 21
7.74181
 31
0.0
  0
LINE
  8
0
 62
     0
 10
152.683
 20
7.74181
 30
0.0
 11
138.683
 21
7.74181
 31
0.0
  0
LINE
  8
0
 62
     0
 10
138.683
 20
7.74181
 30
0.0
 11
138.683
 21
21.7427
 31
0.0
  0
LINE
  8
0
 62
     0
 10
114.87
 20
21.7427
 30
0.0
 11
128.871
 21
21.7427
 31
0.0
  0
LINE
  8
0
 62
     0
 10
128.871
 20
21.7427
 30
0.0
 11
128.871
 21
7.74181
 31
0.0
  0
LINE
  8
0
 62
     0
 10
128.871
 20
7.74181
 30
0.0
 11
114.87
 21
7.74181
 31
0.0
  0
LINE
  8
0
 62
     0
 10
114.87
 20
7.74181
 30
0.0
 11
114.87
 21
21.7427
 31
0.0
  0
LINE
  8
0
 62
     0
 10
74.3906
 20
21.7427
 30
0.0
 11
88.3902
 21
21.7427
 31
0.0
  0
LINE
  8
0
 62
     0
 10
88.3902
 20
21.7427
 30
0.0
 11
88.3902
 21
7.74181
 31
0.0
  0
LINE
  8
0
 62
     0
 10
88.3902
 20
7.74181
 30
0.0
 11
74.3906
 21
7.74181
 31
0.0
  0
LINE
  8
0
 62
     0
 10
74.3906
 20
7.74181
 30
0.0
 11
74.3906
 21
21.7427
 31
0.0
  0
LINE
  8
0
 62
     0
 10
55.3406
 20
21.7427
 30
0.0
 11
69.3402
 21
21.7427
 31
0.0
  0
LINE
  8
0
 62
     0
 10
69.3402
 20
21.7427
 30
0.0
 11
69.3402
 21
7.74181
 31
0.0
  0
LINE
  8
0
 62
     0
 10
69.3402
 20
7.74181
 30
0.0
 11
55.3406
 21
7.74181
 31
0.0
  0
LINE
  8
0
 62
     0
 10
55.3406
 20
7.74181
 30
0.0
 11
55.3406
 21
21.7427
 31
0.0
  0
LINE
  8
0
 62
     0
 10
36.2906
 20
21.7427
 30
0.0
 11
50.2902
 21
21.7427
 31
0.0
  0
LINE
  8
0
 62
     0
 10
50.2902
 20
21.7427
 30
0.0
 11
50.2902
 21
7.74181
 31
0.0
  0
LINE
  8
0
 62
     0
 10
50.2902
 20
7.74181
 30
0.0
 11
36.2906
 21
7.74181
 31
0.0
  0
LINE
  8
0
 62
     0
 10
36.2906
 20
7.74181
 30
0.0
 11
36.2906
 21
21.7427
 31
0.0
  0
LINE
  8
0
 62
     0
 10
14.2145
 20
45.1295
 30
0.0
 11
14.2145
 21
44.3039
 31
0.0
  0
LINE
  8
0
 62
     0
 10
14.2145
 20
44.3039
 30
0.0
 11
7.94438
 21
44.3039
 31
0.0
  0
LINE
  8
0
 62
     0
 10
7.94438
 20
44.3039
 30
0.0
 11
7.94438
 21
42.5799
 31
0.0
  0
LINE
  8
0
 62
     0
 10
7.94438
 20
42.5799
 30
0.0
 11
6.96461
 21
42.5799
 31
0.0
  0
LINE
  8
0
 62
     0
 10
6.96461
 20
42.5799
 30
0.0
 11
6.96461
 21
39.2797
 31
0.0
  0
LINE
  8
0
 62
     0
 10
6.96461
 20
39.2797
 30
0.0
 11
7.94438
 21
39.2797
 31
0.0
  0
LINE
  8
0
 62
     0
 10
7.94438
 20
39.2797
 30
0.0
 11
7.94438
 21
37.5543
 31
0.0
  0
LINE
  8
0
 62
     0
 10
7.94438
 20
37.5543
 30
0.0
 11
12.4134
 21
37.5543
 31
0.0
  0
LINE
  8
0
 62
     0
 10
12.4134
 20
37.5543
 30
0.0
 11
12.4134
 21
36.0288
 31
0.0
  0
LINE
  8
0
 62
     0
 10
12.4134
 20
36.0288
 30
0.0
 11
7.71426
 21
36.0288
 31
0.0
  0
LINE
  8
0
 62
     0
 10
7.71426
 20
36.0288
 30
0.0
 11
7.71426
 21
22.0293
 31
0.0
  0
LINE
  8
0
 62
     0
 10
7.71426
 20
22.0293
 30
0.0
 11
12.4134
 21
22.0293
 31
0.0
  0
LINE
  8
0
 62
     0
 10
12.4134
 20
22.0293
 30
0.0
 11
12.4134
 21
20.5038
 31
0.0
  0
LINE
  8
0
 62
     0
 10
12.4134
 20
20.5038
 30
0.0
 11
7.94438
 21
20.5038
 31
0.0
  0
LINE
  8
0
 62
     0
 10
7.94438
 20
20.5038
 30
0.0
 11
7.94438
 21
18.7799
 31
0.0
  0
LINE
  8
0
 62
     0
 10
7.94438
 20
18.7799
 30
0.0
 11
6.96461
 21
18.7799
 31
0.0
  0
LINE
  8
0
 62
     0
 10
6.96461
 20
18.7799
 30
0.0
 11
6.96461
 21
15.4795
 31
0.0
  0
LINE
  8
0
 62
     0
 10
6.96461
 20
15.4795
 30
0.0
 11
7.94438
 21
15.4795
 31
0.0
  0
LINE
  8
0
 62
     0
 10
7.94438
 20
15.4795
 30
0.0
 11
7.94438
 21
13.7542
 31
0.0
  0
LINE
  8
0
 62
     0
 10
7.94438
 20
13.7542
 30
0.0
 11
14.2145
 21
13.7542
 31
0.0
  0
LINE
  8
0
 62
     0
 10
14.2145
 20
13.7542
 30
0.0
 11
14.2145
 21
12.9301
 31
0.0
  0
LINE
  8
0
 62
     0
 10
14.2145
 20
12.9301
 30
0.0
 11
17.0146
 21
12.9301
 31
0.0
  0
LINE
  8
0
 62
     0
 10
17.0146
 20
12.9301
 30
0.0
 11
17.0146
 21
13.7542
 31
0.0
  0
LINE
  8
0
 62
     0
 10
17.0146
 20
13.7542
 30
0.0
 11
20.2448
 21
13.7542
 31
0.0
  0
LINE
  8
0
 62
     0
 10
20.2448
 20
13.7542
 30
0.0
 11
20.2448
 21
15.4795
 31
0.0
  0
LINE
  8
0
 62
     0
 10
20.2448
 20
15.4795
 30
0.0
 11
21.1653
 21
15.4795
 31
0.0
  0
LINE
  8
0
 62
     0
 10
21.1653
 20
15.4795
 30
0.0
 11
21.1653
 21
18.7799
 31
0.0
  0
LINE
  8
0
 62
     0
 10
21.1653
 20
18.7799
 30
0.0
 11
20.2448
 21
18.7799
 31
0.0
  0
LINE
  8
0
 62
     0
 10
20.2448
 20
18.7799
 30
0.0
 11
20.2448
 21
20.5038
 31
0.0
  0
LINE
  8
0
 62
     0
 10
20.2448
 20
20.5038
 30
0.0
 11
17.0146
 21
20.5038
 31
0.0
  0
LINE
  8
0
 62
     0
 10
17.0146
 20
20.5038
 30
0.0
 11
17.0146
 21
22.0293
 31
0.0
  0
LINE
  8
0
 62
     0
 10
17.0146
 20
22.0293
 30
0.0
 11
21.7151
 21
22.0293
 31
0.0
  0
LINE
  8
0
 62
     0
 10
21.7151
 20
22.0293
 30
0.0
 11
21.7151
 21
36.0288
 31
0.0
  0
LINE
  8
0
 62
     0
 10
21.7151
 20
36.0288
 30
0.0
 11
17.0146
 21
36.0288
 31
0.0
  0
LINE
  8
0
 62
     0
 10
17.0146
 20
36.0288
 30
0.0
 11
17.0146
 21
37.5543
 31
0.0
  0
LINE
  8
0
 62
     0
 10
17.0146
 20
37.5543
 30
0.0
 11
20.2448
 21
37.5543
 31
0.0
  0
LINE
  8
0
 62
     0
 10
20.2448
 20
37.5543
 30
0.0
 11
20.2448
 21
39.2797
 31
0.0
  0
LINE
  8
0
 62
     0
 10
20.2448
 20
39.2797
 30
0.0
 11
21.1639
 21
39.2797
 31
0.0
  0
LINE
  8
0
 62
     0
 10
21.1639
 20
39.2797
 30
0.0
 11
21.1639
 21
42.5799
 31
0.0
  0
LINE
  8
0
 62
     0
 10
21.1639
 20
42.5799
 30
0.0
 11
20.2448
 21
42.5799
 31
0.0
  0
LINE
  8
0
 62
     0
 10
20.2448
 20
42.5799
 30
0.0
 11
20.2448
 21
44.3039
 31
0.0
  0
LINE
  8
0
 62
     0
 10
20.2448
 20
44.3039
 30
0.0
 11
17.0146
 21
44.3039
 31
0.0
  0
LINE
  8
0
 62
     0
 10
17.0146
 20
44.3039
 30
0.0
 11
17.0146
 21
45.1295
 31
0.0
  0
LINE
  8
0
 62
     0
 10
17.0146
 20
45.1295
 30
0.0
 11
14.2145
 21
45.1295
 31
0.0
  0
LINE
  8
0
 62
     0
 10
362.521
 20
40.7928
 30
0.0
 11
362.521
 21
36.0923
 31
0.0
  0
LINE
  8
0
 62
     0
 10
362.521
 20
36.0923
 30
0.0
 11
360.997
 21
36.0923
 31
0.0
  0
LINE
  8
0
 62
     0
 10
360.997
 20
36.0923
 30
0.0
 11
360.997
 21
39.3224
 31
0.0
  0
LINE
  8
0
 62
     0
 10
360.997
 20
39.3224
 30
0.0
 11
359.272
 21
39.3224
 31
0.0
  0
LINE
  8
0
 62
     0
 10
359.272
 20
39.3224
 30
0.0
 11
359.272
 21
40.2428
 31
0.0
  0
LINE
  8
0
 62
     0
 10
359.272
 20
40.2428
 30
0.0
 11
355.97
 21
40.2428
 31
0.0
  0
LINE
  8
0
 62
     0
 10
355.97
 20
40.2428
 30
0.0
 11
355.97
 21
39.3224
 31
0.0
  0
LINE
  8
0
 62
     0
 10
355.97
 20
39.3224
 30
0.0
 11
354.245
 21
39.3224
 31
0.0
  0
LINE
  8
0
 62
     0
 10
354.245
 20
39.3224
 30
0.0
 11
354.245
 21
36.0923
 31
0.0
  0
LINE
  8
0
 62
     0
 10
354.245
 20
36.0923
 30
0.0
 11
353.42
 21
36.0923
 31
0.0
  0
LINE
  8
0
 62
     0
 10
353.42
 20
36.0923
 30
0.0
 11
353.42
 21
33.292
 31
0.0
  0
LINE
  8
0
 62
     0
 10
353.42
 20
33.292
 30
0.0
 11
354.245
 21
33.292
 31
0.0
  0
LINE
  8
0
 62
     0
 10
354.245
 20
33.292
 30
0.0
 11
354.245
 21
27.022
 31
0.0
  0
LINE
  8
0
 62
     0
 10
354.245
 20
27.022
 30
0.0
 11
355.97
 21
27.022
 31
0.0
  0
LINE
  8
0
 62
     0
 10
355.97
 20
27.022
 30
0.0
 11
355.97
 21
26.0422
 31
0.0
  0
LINE
  8
0
 62
     0
 10
355.97
 20
26.0422
 30
0.0
 11
359.272
 21
26.0422
 31
0.0
  0
LINE
  8
0
 62
     0
 10
359.272
 20
26.0422
 30
0.0
 11
359.272
 21
27.022
 31
0.0
  0
LINE
  8
0
 62
     0
 10
359.272
 20
27.022
 30
0.0
 11
360.997
 21
27.022
 31
0.0
  0
LINE
  8
0
 62
     0
 10
360.997
 20
27.022
 30
0.0
 11
360.997
 21
31.4923
 31
0.0
  0
LINE
  8
0
 62
     0
 10
360.997
 20
31.4923
 30
0.0
 11
362.521
 21
31.4923
 31
0.0
  0
LINE
  8
0
 62
     0
 10
362.521
 20
31.4923
 30
0.0
 11
362.521
 21
26.7918
 31
0.0
  0
LINE
  8
0
 62
     0
 10
362.521
 20
26.7918
 30
0.0
 11
376.52
 21
26.7918
 31
0.0
  0
LINE
  8
0
 62
     0
 10
376.52
 20
26.7918
 30
0.0
 11
376.52
 21
31.4923
 31
0.0
  0
LINE
  8
0
 62
     0
 10
376.52
 20
31.4923
 30
0.0
 11
378.047
 21
31.4923
 31
0.0
  0
LINE
  8
0
 62
     0
 10
378.047
 20
31.4923
 30
0.0
 11
378.047
 21
27.022
 31
0.0
  0
LINE
  8
0
 62
     0
 10
378.047
 20
27.022
 30
0.0
 11
379.772
 21
27.022
 31
0.0
  0
LINE
  8
0
 62
     0
 10
379.772
 20
27.022
 30
0.0
 11
379.772
 21
26.0422
 31
0.0
  0
LINE
  8
0
 62
     0
 10
379.772
 20
26.0422
 30
0.0
 11
383.071
 21
26.0422
 31
0.0
  0
LINE
  8
0
 62
     0
 10
383.071
 20
26.0422
 30
0.0
 11
383.071
 21
27.022
 31
0.0
  0
LINE
  8
0
 62
     0
 10
383.071
 20
27.022
 30
0.0
 11
384.796
 21
27.022
 31
0.0
  0
LINE
  8
0
 62
     0
 10
384.796
 20
27.022
 30
0.0
 11
384.796
 21
33.292
 31
0.0
  0
LINE
  8
0
 62
     0
 10
384.796
 20
33.292
 30
0.0
 11
385.621
 21
33.292
 31
0.0
  0
LINE
  8
0
 62
     0
 10
385.621
 20
33.292
 30
0.0
 11
385.621
 21
36.0923
 31
0.0
  0
LINE
  8
0
 62
     0
 10
385.621
 20
36.0923
 30
0.0
 11
384.796
 21
36.0923
 31
0.0
  0
LINE
  8
0
 62
     0
 10
384.796
 20
36.0923
 30
0.0
 11
384.796
 21
39.3224
 31
0.0
  0
LINE
  8
0
 62
     0
 10
384.796
 20
39.3224
 30
0.0
 11
383.071
 21
39.3224
 31
0.0
  0
LINE
  8
0
 62
     0
 10
383.071
 20
39.3224
 30
0.0
 11
383.071
 21
40.2428
 31
0.0
  0
LINE
  8
0
 62
     0
 10
383.071
 20
40.2428
 30
0.0
 11
379.772
 21
40.2428
 31
0.0
  0
LINE
  8
0
 62
     0
 10
379.772
 20
40.2428
 30
0.0
 11
379.772
 21
39.3224
 31
0.0
  0
LINE
  8
0
 62
     0
 10
379.772
 20
39.3224
 30
0.0
 11
378.047
 21
39.3224
 31
0.0
  0
LINE
  8
0
 62
     0
 10
378.047
 20
39.3224
 30
0.0
 11
378.047
 21
36.0923
 31
0.0
  0
LINE
  8
0
 62
     0
 10
378.047
 20
36.0923
 30
0.0
 11
376.52
 21
36.0923
 31
0.0
  0
LINE
  8
0
 62
     0
 10
376.52
 20
36.0923
 30
0.0
 11
376.52
 21
40.7928
 31
0.0
  0
LINE
  8
0
 62
     0
 10
376.52
 20
40.7928
 30
0.0
 11
362.521
 21
40.7928
 31
0.0
  0
LINE
  8
0
 62
     0
 10
326.802
 20
40.7928
 30
0.0
 11
340.803
 21
40.7928
 31
0.0
  0
LINE
  8
0
 62
     0
 10
340.803
 20
40.7928
 30
0.0
 11
340.803
 21
26.7918
 31
0.0
  0
LINE
  8
0
 62
     0
 10
340.803
 20
26.7918
 30
0.0
 11
326.802
 21
26.7918
 31
0.0
  0
LINE
  8
0
 62
     0
 10
326.802
 20
26.7918
 30
0.0
 11
326.802
 21
40.7928
 31
0.0
  0
LINE
  8
0
 62
     0
 10
307.752
 20
40.7928
 30
0.0
 11
321.753
 21
40.7928
 31
0.0
  0
LINE
  8
0
 62
     0
 10
321.753
 20
40.7928
 30
0.0
 11
321.753
 21
26.7918
 31
0.0
  0
LINE
  8
0
 62
     0
 10
321.753
 20
26.7918
 30
0.0
 11
307.752
 21
26.7918
 31
0.0
  0
LINE
  8
0
 62
     0
 10
307.752
 20
26.7918
 30
0.0
 11
307.752
 21
40.7928
 31
0.0
  0
LINE
  8
0
 62
     0
 10
288.702
 20
40.7928
 30
0.0
 11
302.703
 21
40.7928
 31
0.0
  0
LINE
  8
0
 62
     0
 10
302.703
 20
40.7928
 30
0.0
 11
302.703
 21
26.7918
 31
0.0
  0
LINE
  8
0
 62
     0
 10
302.703
 20
26.7918
 30
0.0
 11
288.702
 21
26.7918
 31
0.0
  0
LINE
  8
0
 62
     0
 10
288.702
 20
26.7918
 30
0.0
 11
288.702
 21
40.7928
 31
0.0
  0
LINE
  8
0
 62
     0
 10
269.652
 20
40.7928
 30
0.0
 11
283.653
 21
40.7928
 31
0.0
  0
LINE
  8
0
 62
     0
 10
283.653
 20
40.7928
 30
0.0
 11
283.653
 21
26.7918
 31
0.0
  0
LINE
  8
0
 62
     0
 10
283.653
 20
26.7918
 30
0.0
 11
269.652
 21
26.7918
 31
0.0
  0
LINE
  8
0
 62
     0
 10
269.652
 20
26.7918
 30
0.0
 11
269.652
 21
40.7928
 31
0.0
  0
LINE
  8
0
 62
     0
 10
250.602
 20
40.7928
 30
0.0
 11
264.603
 21
40.7928
 31
0.0
  0
LINE
  8
0
 62
     0
 10
264.603
 20
40.7928
 30
0.0
 11
264.603
 21
26.7918
 31
0.0
  0
LINE
  8
0
 62
     0
 10
264.603
 20
26.7918
 30
0.0
 11
250.602
 21
26.7918
 31
0.0
  0
LINE
  8
0
 62
     0
 10
250.602
 20
26.7918
 30
0.0
 11
250.602
 21
40.7928
 31
0.0
  0
LINE
  8
0
 62
     0
 10
231.552
 20
40.7928
 30
0.0
 11
245.553
 21
40.7928
 31
0.0
  0
LINE
  8
0
 62
     0
 10
245.553
 20
40.7928
 30
0.0
 11
245.553
 21
26.7918
 31
0.0
  0
LINE
  8
0
 62
     0
 10
245.553
 20
26.7918
 30
0.0
 11
231.552
 21
26.7918
 31
0.0
  0
LINE
  8
0
 62
     0
 10
231.552
 20
26.7918
 30
0.0
 11
231.552
 21
40.7928
 31
0.0
  0
LINE
  8
0
 62
     0
 10
212.502
 20
40.7928
 30
0.0
 11
226.503
 21
40.7928
 31
0.0
  0
LINE
  8
0
 62
     0
 10
226.503
 20
40.7928
 30
0.0
 11
226.503
 21
26.7918
 31
0.0
  0
LINE
  8
0
 62
     0
 10
226.503
 20
26.7918
 30
0.0
 11
212.502
 21
26.7918
 31
0.0
  0
LINE
  8
0
 62
     0
 10
212.502
 20
26.7918
 30
0.0
 11
212.502
 21
40.7928
 31
0.0
  0
LINE
  8
0
 62
     0
 10
193.452
 20
40.7928
 30
0.0
 11
207.453
 21
40.7928
 31
0.0
  0
LINE
  8
0
 62
     0
 10
207.453
 20
40.7928
 30
0.0
 11
207.453
 21
26.7918
 31
0.0
  0
LINE
  8
0
 62
     0
 10
207.453
 20
26.7918
 30
0.0
 11
193.452
 21
26.7918
 31
0.0
  0
LINE
  8
0
 62
     0
 10
193.452
 20
26.7918
 30
0.0
 11
193.452
 21
40.7928
 31
0.0
  0
LINE
  8
0
 62
     0
 10
174.402
 20
40.7928
 30
0.0
 11
188.403
 21
40.7928
 31
0.0
  0
LINE
  8
0
 62
     0
 10
188.403
 20
40.7928
 30
0.0
 11
188.403
 21
26.7918
 31
0.0
  0
LINE
  8
0
 62
     0
 10
188.403
 20
26.7918
 30
0.0
 11
174.402
 21
26.7918
 31
0.0
  0
LINE
  8
0
 62
     0
 10
174.402
 20
26.7918
 30
0.0
 11
174.402
 21
40.7928
 31
0.0
  0
LINE
  8
0
 62
     0
 10
155.352
 20
40.7928
 30
0.0
 11
169.353
 21
40.7928
 31
0.0
  0
LINE
  8
0
 62
     0
 10
169.353
 20
40.7928
 30
0.0
 11
169.353
 21
26.7918
 31
0.0
  0
LINE
  8
0
 62
     0
 10
169.353
 20
26.7918
 30
0.0
 11
155.352
 21
26.7918
 31
0.0
  0
LINE
  8
0
 62
     0
 10
155.352
 20
26.7918
 30
0.0
 11
155.352
 21
40.7928
 31
0.0
  0
LINE
  8
0
 62
     0
 10
136.302
 20
40.7928
 30
0.0
 11
150.303
 21
40.7928
 31
0.0
  0
LINE
  8
0
 62
     0
 10
150.303
 20
40.7928
 30
0.0
 11
150.303
 21
26.7918
 31
0.0
  0
LINE
  8
0
 62
     0
 10
150.303
 20
26.7918
 30
0.0
 11
136.302
 21
26.7918
 31
0.0
  0
LINE
  8
0
 62
     0
 10
136.302
 20
26.7918
 30
0.0
 11
136.302
 21
40.7928
 31
0.0
  0
LINE
  8
0
 62
     0
 10
114.87
 20
40.7928
 30
0.0
 11
128.871
 21
40.7928
 31
0.0
  0
LINE
  8
0
 62
     0
 10
128.871
 20
40.7928
 30
0.0
 11
128.871
 21
26.7918
 31
0.0
  0
LINE
  8
0
 62
     0
 10
128.871
 20
26.7918
 30
0.0
 11
114.87
 21
26.7918
 31
0.0
  0
LINE
  8
0
 62
     0
 10
114.87
 20
26.7918
 30
0.0
 11
114.87
 21
40.7928
 31
0.0
  0
LINE
  8
0
 62
     0
 10
55.3406
 20
40.7928
 30
0.0
 11
69.3402
 21
40.7928
 31
0.0
  0
LINE
  8
0
 62
     0
 10
69.3402
 20
40.7928
 30
0.0
 11
69.3402
 21
26.7918
 31
0.0
  0
LINE
  8
0
 62
     0
 10
69.3402
 20
26.7918
 30
0.0
 11
55.3406
 21
26.7918
 31
0.0
  0
LINE
  8
0
 62
     0
 10
55.3406
 20
26.7918
 30
0.0
 11
55.3406
 21
40.7928
 31
0.0
  0
LINE
  8
0
 62
     0
 10
26.7656
 20
45.5538
 30
0.0
 11
40.7652
 21
45.5538
 31
0.0
  0
LINE
  8
0
 62
     0
 10
40.7652
 20
45.5538
 30
0.0
 11
40.7652
 21
31.5543
 31
0.0
  0
LINE
  8
0
 62
     0
 10
40.7652
 20
31.5543
 30
0.0
 11
26.7656
 21
31.5543
 31
0.0
  0
LINE
  8
0
 62
     0
 10
26.7656
 20
31.5543
 30
0.0
 11
26.7656
 21
45.5538
 31
0.0
  0
LINE
  8
0
 62
     0
 10
88.6767
 20
50.3178
 30
0.0
 11
102.678
 21
50.3178
 31
0.0
  0
LINE
  8
0
 62
     0
 10
102.678
 20
50.3178
 30
0.0
 11
102.678
 21
36.3167
 31
0.0
  0
LINE
  8
0
 62
     0
 10
102.678
 20
36.3167
 30
0.0
 11
88.6767
 21
36.3167
 31
0.0
  0
LINE
  8
0
 62
     0
 10
88.6767
 20
36.3167
 30
0.0
 11
88.6767
 21
50.3178
 31
0.0
  0
LINE
  8
0
 62
     0
 10
355.378
 20
59.8428
 30
0.0
 11
369.376
 21
59.8428
 31
0.0
  0
LINE
  8
0
 62
     0
 10
369.376
 20
59.8428
 30
0.0
 11
369.376
 21
45.8417
 31
0.0
  0
LINE
  8
0
 62
     0
 10
369.376
 20
45.8417
 30
0.0
 11
355.378
 21
45.8417
 31
0.0
  0
LINE
  8
0
 62
     0
 10
355.378
 20
45.8417
 30
0.0
 11
355.378
 21
59.8428
 31
0.0
  0
LINE
  8
0
 62
     0
 10
336.327
 20
59.8428
 30
0.0
 11
350.328
 21
59.8428
 31
0.0
  0
LINE
  8
0
 62
     0
 10
350.328
 20
59.8428
 30
0.0
 11
350.328
 21
45.8417
 31
0.0
  0
LINE
  8
0
 62
     0
 10
350.328
 20
45.8417
 30
0.0
 11
336.327
 21
45.8417
 31
0.0
  0
LINE
  8
0
 62
     0
 10
336.327
 20
45.8417
 30
0.0
 11
336.327
 21
59.8428
 31
0.0
  0
LINE
  8
0
 62
     0
 10
317.277
 20
59.8428
 30
0.0
 11
331.278
 21
59.8428
 31
0.0
  0
LINE
  8
0
 62
     0
 10
331.278
 20
59.8428
 30
0.0
 11
331.278
 21
45.8417
 31
0.0
  0
LINE
  8
0
 62
     0
 10
331.278
 20
45.8417
 30
0.0
 11
317.277
 21
45.8417
 31
0.0
  0
LINE
  8
0
 62
     0
 10
317.277
 20
45.8417
 30
0.0
 11
317.277
 21
59.8428
 31
0.0
  0
LINE
  8
0
 62
     0
 10
298.227
 20
59.8428
 30
0.0
 11
312.228
 21
59.8428
 31
0.0
  0
LINE
  8
0
 62
     0
 10
312.228
 20
59.8428
 30
0.0
 11
312.228
 21
45.8417
 31
0.0
  0
LINE
  8
0
 62
     0
 10
312.228
 20
45.8417
 30
0.0
 11
298.227
 21
45.8417
 31
0.0
  0
LINE
  8
0
 62
     0
 10
298.227
 20
45.8417
 30
0.0
 11
298.227
 21
59.8428
 31
0.0
  0
LINE
  8
0
 62
     0
 10
279.177
 20
59.8428
 30
0.0
 11
293.178
 21
59.8428
 31
0.0
  0
LINE
  8
0
 62
     0
 10
293.178
 20
59.8428
 30
0.0
 11
293.178
 21
45.8417
 31
0.0
  0
LINE
  8
0
 62
     0
 10
293.178
 20
45.8417
 30
0.0
 11
279.177
 21
45.8417
 31
0.0
  0
LINE
  8
0
 62
     0
 10
279.177
 20
45.8417
 30
0.0
 11
279.177
 21
59.8428
 31
0.0
  0
LINE
  8
0
 62
     0
 10
260.127
 20
59.8428
 30
0.0
 11
274.128
 21
59.8428
 31
0.0
  0
LINE
  8
0
 62
     0
 10
274.128
 20
59.8428
 30
0.0
 11
274.128
 21
45.8417
 31
0.0
  0
LINE
  8
0
 62
     0
 10
274.128
 20
45.8417
 30
0.0
 11
260.127
 21
45.8417
 31
0.0
  0
LINE
  8
0
 62
     0
 10
260.127
 20
45.8417
 30
0.0
 11
260.127
 21
59.8428
 31
0.0
  0
LINE
  8
0
 62
     0
 10
241.077
 20
59.8428
 30
0.0
 11
255.078
 21
59.8428
 31
0.0
  0
LINE
  8
0
 62
     0
 10
255.078
 20
59.8428
 30
0.0
 11
255.078
 21
45.8417
 31
0.0
  0
LINE
  8
0
 62
     0
 10
255.078
 20
45.8417
 30
0.0
 11
241.077
 21
45.8417
 31
0.0
  0
LINE
  8
0
 62
     0
 10
241.077
 20
45.8417
 30
0.0
 11
241.077
 21
59.8428
 31
0.0
  0
LINE
  8
0
 62
     0
 10
222.027
 20
59.8428
 30
0.0
 11
236.028
 21
59.8428
 31
0.0
  0
LINE
  8
0
 62
     0
 10
236.028
 20
59.8428
 30
0.0
 11
236.028
 21
45.8417
 31
0.0
  0
LINE
  8
0
 62
     0
 10
236.028
 20
45.8417
 30
0.0
 11
222.027
 21
45.8417
 31
0.0
  0
LINE
  8
0
 62
     0
 10
222.027
 20
45.8417
 30
0.0
 11
222.027
 21
59.8428
 31
0.0
  0
LINE
  8
0
 62
     0
 10
202.977
 20
59.8428
 30
0.0
 11
216.978
 21
59.8428
 31
0.0
  0
LINE
  8
0
 62
     0
 10
216.978
 20
59.8428
 30
0.0
 11
216.978
 21
45.8417
 31
0.0
  0
LINE
  8
0
 62
     0
 10
216.978
 20
45.8417
 30
0.0
 11
202.977
 21
45.8417
 31
0.0
  0
LINE
  8
0
 62
     0
 10
202.977
 20
45.8417
 30
0.0
 11
202.977
 21
59.8428
 31
0.0
  0
LINE
  8
0
 62
     0
 10
183.927
 20
59.8428
 30
0.0
 11
197.928
 21
59.8428
 31
0.0
  0
LINE
  8
0
 62
     0
 10
197.928
 20
59.8428
 30
0.0
 11
197.928
 21
45.8417
 31
0.0
  0
LINE
  8
0
 62
     0
 10
197.928
 20
45.8417
 30
0.0
 11
183.927
 21
45.8417
 31
0.0
  0
LINE
  8
0
 62
     0
 10
183.927
 20
45.8417
 30
0.0
 11
183.927
 21
59.8428
 31
0.0
  0
LINE
  8
0
 62
     0
 10
164.877
 20
59.8428
 30
0.0
 11
178.878
 21
59.8428
 31
0.0
  0
LINE
  8
0
 62
     0
 10
178.878
 20
59.8428
 30
0.0
 11
178.878
 21
45.8417
 31
0.0
  0
LINE
  8
0
 62
     0
 10
178.878
 20
45.8417
 30
0.0
 11
164.877
 21
45.8417
 31
0.0
  0
LINE
  8
0
 62
     0
 10
164.877
 20
45.8417
 30
0.0
 11
164.877
 21
59.8428
 31
0.0
  0
LINE
  8
0
 62
     0
 10
145.827
 20
59.8428
 30
0.0
 11
159.828
 21
59.8428
 31
0.0
  0
LINE
  8
0
 62
     0
 10
159.828
 20
59.8428
 30
0.0
 11
159.828
 21
45.8417
 31
0.0
  0
LINE
  8
0
 62
     0
 10
159.828
 20
45.8417
 30
0.0
 11
145.827
 21
45.8417
 31
0.0
  0
LINE
  8
0
 62
     0
 10
145.827
 20
45.8417
 30
0.0
 11
145.827
 21
59.8428
 31
0.0
  0
LINE
  8
0
 62
     0
 10
119.633
 20
59.8428
 30
0.0
 11
133.633
 21
59.8428
 31
0.0
  0
LINE
  8
0
 62
     0
 10
133.633
 20
59.8428
 30
0.0
 11
133.633
 21
45.8417
 31
0.0
  0
LINE
  8
0
 62
     0
 10
133.633
 20
45.8417
 30
0.0
 11
119.633
 21
45.8417
 31
0.0
  0
LINE
  8
0
 62
     0
 10
119.633
 20
45.8417
 30
0.0
 11
119.633
 21
59.8428
 31
0.0
  0
LINE
  8
0
 62
     0
 10
383.307
 20
78.4669
 30
0.0
 11
383.307
 21
77.6429
 31
0.0
  0
LINE
  8
0
 62
     0
 10
383.307
 20
77.6429
 30
0.0
 11
377.038
 21
77.6429
 31
0.0
  0
LINE
  8
0
 62
     0
 10
377.038
 20
77.6429
 30
0.0
 11
377.038
 21
75.9174
 31
0.0
  0
LINE
  8
0
 62
     0
 10
377.038
 20
75.9174
 30
0.0
 11
376.058
 21
75.9174
 31
0.0
  0
LINE
  8
0
 62
     0
 10
376.058
 20
75.9174
 30
0.0
 11
376.058
 21
72.6172
 31
0.0
  0
LINE
  8
0
 62
     0
 10
376.058
 20
72.6172
 30
0.0
 11
377.038
 21
72.6172
 31
0.0
  0
LINE
  8
0
 62
     0
 10
377.038
 20
72.6172
 30
0.0
 11
377.038
 21
70.8918
 31
0.0
  0
LINE
  8
0
 62
     0
 10
377.038
 20
70.8918
 30
0.0
 11
381.508
 21
70.8918
 31
0.0
  0
LINE
  8
0
 62
     0
 10
381.508
 20
70.8918
 30
0.0
 11
381.508
 21
69.3678
 31
0.0
  0
LINE
  8
0
 62
     0
 10
381.508
 20
69.3678
 30
0.0
 11
376.809
 21
69.3678
 31
0.0
  0
LINE
  8
0
 62
     0
 10
376.809
 20
69.3678
 30
0.0
 11
376.809
 21
55.3667
 31
0.0
  0
LINE
  8
0
 62
     0
 10
376.809
 20
55.3667
 30
0.0
 11
381.508
 21
55.3667
 31
0.0
  0
LINE
  8
0
 62
     0
 10
381.508
 20
55.3667
 30
0.0
 11
381.508
 21
53.8427
 31
0.0
  0
LINE
  8
0
 62
     0
 10
381.508
 20
53.8427
 30
0.0
 11
377.038
 21
53.8427
 31
0.0
  0
LINE
  8
0
 62
     0
 10
377.038
 20
53.8427
 30
0.0
 11
377.038
 21
52.1173
 31
0.0
  0
LINE
  8
0
 62
     0
 10
377.038
 20
52.1173
 30
0.0
 11
376.058
 21
52.1173
 31
0.0
  0
LINE
  8
0
 62
     0
 10
376.058
 20
52.1173
 30
0.0
 11
376.058
 21
48.817
 31
0.0
  0
LINE
  8
0
 62
     0
 10
376.058
 20
48.817
 30
0.0
 11
377.038
 21
48.817
 31
0.0
  0
LINE
  8
0
 62
     0
 10
377.038
 20
48.817
 30
0.0
 11
377.038
 21
47.093
 31
0.0
  0
LINE
  8
0
 62
     0
 10
377.038
 20
47.093
 30
0.0
 11
383.307
 21
47.093
 31
0.0
  0
LINE
  8
0
 62
     0
 10
383.307
 20
47.093
 30
0.0
 11
383.307
 21
46.2675
 31
0.0
  0
LINE
  8
0
 62
     0
 10
383.307
 20
46.2675
 30
0.0
 11
386.108
 21
46.2675
 31
0.0
  0
LINE
  8
0
 62
     0
 10
386.108
 20
46.2675
 30
0.0
 11
386.108
 21
47.093
 31
0.0
  0
LINE
  8
0
 62
     0
 10
386.108
 20
47.093
 30
0.0
 11
389.34
 21
47.093
 31
0.0
  0
LINE
  8
0
 62
     0
 10
389.34
 20
47.093
 30
0.0
 11
389.34
 21
48.817
 31
0.0
  0
LINE
  8
0
 62
     0
 10
389.34
 20
48.817
 30
0.0
 11
390.257
 21
48.817
 31
0.0
  0
LINE
  8
0
 62
     0
 10
390.257
 20
48.817
 30
0.0
 11
390.257
 21
52.1173
 31
0.0
  0
LINE
  8
0
 62
     0
 10
390.257
 20
52.1173
 30
0.0
 11
389.34
 21
52.1173
 31
0.0
  0
LINE
  8
0
 62
     0
 10
389.34
 20
52.1173
 30
0.0
 11
389.34
 21
53.8427
 31
0.0
  0
LINE
  8
0
 62
     0
 10
389.34
 20
53.8427
 30
0.0
 11
386.108
 21
53.8427
 31
0.0
  0
LINE
  8
0
 62
     0
 10
386.108
 20
53.8427
 30
0.0
 11
386.108
 21
55.3667
 31
0.0
  0
LINE
  8
0
 62
     0
 10
386.108
 20
55.3667
 30
0.0
 11
390.807
 21
55.3667
 31
0.0
  0
LINE
  8
0
 62
     0
 10
390.807
 20
55.3667
 30
0.0
 11
390.807
 21
69.3678
 31
0.0
  0
LINE
  8
0
 62
     0
 10
390.807
 20
69.3678
 30
0.0
 11
386.108
 21
69.3678
 31
0.0
  0
LINE
  8
0
 62
     0
 10
386.108
 20
69.3678
 30
0.0
 11
386.108
 21
70.8918
 31
0.0
  0
LINE
  8
0
 62
     0
 10
386.108
 20
70.8918
 30
0.0
 11
389.34
 21
70.8918
 31
0.0
  0
LINE
  8
0
 62
     0
 10
389.34
 20
70.8918
 30
0.0
 11
389.34
 21
72.6172
 31
0.0
  0
LINE
  8
0
 62
     0
 10
389.34
 20
72.6172
 30
0.0
 11
390.257
 21
72.6172
 31
0.0
  0
LINE
  8
0
 62
     0
 10
390.257
 20
72.6172
 30
0.0
 11
390.257
 21
75.9174
 31
0.0
  0
LINE
  8
0
 62
     0
 10
390.257
 20
75.9174
 30
0.0
 11
389.34
 21
75.9174
 31
0.0
  0
LINE
  8
0
 62
     0
 10
389.34
 20
75.9174
 30
0.0
 11
389.34
 21
77.6429
 31
0.0
  0
LINE
  8
0
 62
     0
 10
389.34
 20
77.6429
 30
0.0
 11
386.108
 21
77.6429
 31
0.0
  0
LINE
  8
0
 62
     0
 10
386.108
 20
77.6429
 30
0.0
 11
386.108
 21
78.4669
 31
0.0
  0
LINE
  8
0
 62
     0
 10
386.108
 20
78.4669
 30
0.0
 11
383.307
 21
78.4669
 31
0.0
  0
LINE
  8
0
 62
     0
 10
64.8656
 20
64.6038
 30
0.0
 11
78.8652
 21
64.6038
 31
0.0
  0
LINE
  8
0
 62
     0
 10
78.8652
 20
64.6038
 30
0.0
 11
78.8652
 21
50.6042
 31
0.0
  0
LINE
  8
0
 62
     0
 10
78.8652
 20
50.6042
 30
0.0
 11
64.8656
 21
50.6042
 31
0.0
  0
LINE
  8
0
 62
     0
 10
64.8656
 20
50.6042
 30
0.0
 11
64.8656
 21
64.6038
 31
0.0
  0
LINE
  8
0
 62
     0
 10
45.8156
 20
64.6038
 30
0.0
 11
59.8152
 21
64.6038
 31
0.0
  0
LINE
  8
0
 62
     0
 10
59.8152
 20
64.6038
 30
0.0
 11
59.8152
 21
50.6042
 31
0.0
  0
LINE
  8
0
 62
     0
 10
59.8152
 20
50.6042
 30
0.0
 11
45.8156
 21
50.6042
 31
0.0
  0
LINE
  8
0
 62
     0
 10
45.8156
 20
50.6042
 30
0.0
 11
45.8156
 21
64.6038
 31
0.0
  0
LINE
  8
0
 62
     0
 10
26.7656
 20
64.6038
 30
0.0
 11
40.7652
 21
64.6038
 31
0.0
  0
LINE
  8
0
 62
     0
 10
40.7652
 20
64.6038
 30
0.0
 11
40.7652
 21
50.6042
 31
0.0
  0
LINE
  8
0
 62
     0
 10
40.7652
 20
50.6042
 30
0.0
 11
26.7656
 21
50.6042
 31
0.0
  0
LINE
  8
0
 62
     0
 10
26.7656
 20
50.6042
 30
0.0
 11
26.7656
 21
64.6038
 31
0.0
  0
LINE
  8
0
 62
     0
 10
7.71426
 20
64.6038
 30
0.0
 11
21.7151
 21
64.6038
 31
0.0
  0
LINE
  8
0
 62
     0
 10
21.7151
 20
64.6038
 30
0.0
 11
21.7151
 21
50.6042
 31
0.0
  0
LINE
  8
0
 62
     0
 10
21.7151
 20
50.6042
 30
0.0
 11
7.71426
 21
50.6042
 31
0.0
  0
LINE
  8
0
 62
     0
 10
7.71426
 20
50.6042
 30
0.0
 11
7.71426
 21
64.6038
 31
0.0
  0
LINE
  8
0
 62
     0
 10
88.6767
 20
74.1288
 30
0.0
 11
102.678
 21
74.1288
 31
0.0
  0
LINE
  8
0
 62
     0
 10
102.678
 20
74.1288
 30
0.0
 11
102.678
 21
60.1292
 31
0.0
  0
LINE
  8
0
 62
     0
 10
102.678
 20
60.1292
 30
0.0
 11
88.6767
 21
60.1292
 31
0.0
  0
LINE
  8
0
 62
     0
 10
88.6767
 20
60.1292
 30
0.0
 11
88.6767
 21
74.1288
 31
0.0
  0
LINE
  8
0
 62
     0
 10
350.616
 20
78.8928
 30
0.0
 11
364.613
 21
78.8928
 31
0.0
  0
LINE
  8
0
 62
     0
 10
364.613
 20
78.8928
 30
0.0
 11
364.613
 21
64.8917
 31
0.0
  0
LINE
  8
0
 62
     0
 10
364.613
 20
64.8917
 30
0.0
 11
350.616
 21
64.8917
 31
0.0
  0
LINE
  8
0
 62
     0
 10
350.616
 20
64.8917
 30
0.0
 11
350.616
 21
78.8928
 31
0.0
  0
LINE
  8
0
 62
     0
 10
331.566
 20
78.8928
 30
0.0
 11
345.565
 21
78.8928
 31
0.0
  0
LINE
  8
0
 62
     0
 10
345.565
 20
78.8928
 30
0.0
 11
345.565
 21
64.8917
 31
0.0
  0
LINE
  8
0
 62
     0
 10
345.565
 20
64.8917
 30
0.0
 11
331.566
 21
64.8917
 31
0.0
  0
LINE
  8
0
 62
     0
 10
331.566
 20
64.8917
 30
0.0
 11
331.566
 21
78.8928
 31
0.0
  0
LINE
  8
0
 62
     0
 10
312.516
 20
78.8928
 30
0.0
 11
326.515
 21
78.8928
 31
0.0
  0
LINE
  8
0
 62
     0
 10
326.515
 20
78.8928
 30
0.0
 11
326.515
 21
64.8917
 31
0.0
  0
LINE
  8
0
 62
     0
 10
326.515
 20
64.8917
 30
0.0
 11
312.516
 21
64.8917
 31
0.0
  0
LINE
  8
0
 62
     0
 10
312.516
 20
64.8917
 30
0.0
 11
312.516
 21
78.8928
 31
0.0
  0
LINE
  8
0
 62
     0
 10
293.466
 20
78.8928
 30
0.0
 11
307.465
 21
78.8928
 31
0.0
  0
LINE
  8
0
 62
     0
 10
307.465
 20
78.8928
 30
0.0
 11
307.465
 21
64.8917
 31
0.0
  0
LINE
  8
0
 62
     0
 10
307.465
 20
64.8917
 30
0.0
 11
293.466
 21
64.8917
 31
0.0
  0
LINE
  8
0
 62
     0
 10
293.466
 20
64.8917
 30
0.0
 11
293.466
 21
78.8928
 31
0.0
  0
LINE
  8
0
 62
     0
 10
274.416
 20
78.8928
 30
0.0
 11
288.415
 21
78.8928
 31
0.0
  0
LINE
  8
0
 62
     0
 10
288.415
 20
78.8928
 30
0.0
 11
288.415
 21
64.8917
 31
0.0
  0
LINE
  8
0
 62
     0
 10
288.415
 20
64.8917
 30
0.0
 11
274.416
 21
64.8917
 31
0.0
  0
LINE
  8
0
 62
     0
 10
274.416
 20
64.8917
 30
0.0
 11
274.416
 21
78.8928
 31
0.0
  0
LINE
  8
0
 62
     0
 10
255.366
 20
78.8928
 30
0.0
 11
269.365
 21
78.8928
 31
0.0
  0
LINE
  8
0
 62
     0
 10
269.365
 20
78.8928
 30
0.0
 11
269.365
 21
64.8917
 31
0.0
  0
LINE
  8
0
 62
     0
 10
269.365
 20
64.8917
 30
0.0
 11
255.366
 21
64.8917
 31
0.0
  0
LINE
  8
0
 62
     0
 10
255.366
 20
64.8917
 30
0.0
 11
255.366
 21
78.8928
 31
0.0
  0
LINE
  8
0
 62
     0
 10
236.316
 20
78.8928
 30
0.0
 11
250.315
 21
78.8928
 31
0.0
  0
LINE
  8
0
 62
     0
 10
250.315
 20
78.8928
 30
0.0
 11
250.315
 21
64.8917
 31
0.0
  0
LINE
  8
0
 62
     0
 10
250.315
 20
64.8917
 30
0.0
 11
236.316
 21
64.8917
 31
0.0
  0
LINE
  8
0
 62
     0
 10
236.316
 20
64.8917
 30
0.0
 11
236.316
 21
78.8928
 31
0.0
  0
LINE
  8
0
 62
     0
 10
217.266
 20
78.8928
 30
0.0
 11
231.265
 21
78.8928
 31
0.0
  0
LINE
  8
0
 62
     0
 10
231.265
 20
78.8928
 30
0.0
 11
231.265
 21
64.8917
 31
0.0
  0
LINE
  8
0
 62
     0
 10
231.265
 20
64.8917
 30
0.0
 11
217.266
 21
64.8917
 31
0.0
  0
LINE
  8
0
 62
     0
 10
217.266
 20
64.8917
 30
0.0
 11
217.266
 21
78.8928
 31
0.0
  0
LINE
  8
0
 62
     0
 10
198.216
 20
78.8928
 30
0.0
 11
212.215
 21
78.8928
 31
0.0
  0
LINE
  8
0
 62
     0
 10
212.215
 20
78.8928
 30
0.0
 11
212.215
 21
64.8917
 31
0.0
  0
LINE
  8
0
 62
     0
 10
212.215
 20
64.8917
 30
0.0
 11
198.216
 21
64.8917
 31
0.0
  0
LINE
  8
0
 62
     0
 10
198.216
 20
64.8917
 30
0.0
 11
198.216
 21
78.8928
 31
0.0
  0
LINE
  8
0
 62
     0
 10
179.166
 20
78.8928
 30
0.0
 11
193.165
 21
78.8928
 31
0.0
  0
LINE
  8
0
 62
     0
 10
193.165
 20
78.8928
 30
0.0
 11
193.165
 21
64.8917
 31
0.0
  0
LINE
  8
0
 62
     0
 10
193.165
 20
64.8917
 30
0.0
 11
179.166
 21
64.8917
 31
0.0
  0
LINE
  8
0
 62
     0
 10
179.166
 20
64.8917
 30
0.0
 11
179.166
 21
78.8928
 31
0.0
  0
LINE
  8
0
 62
     0
 10
160.116
 20
78.8928
 30
0.0
 11
174.115
 21
78.8928
 31
0.0
  0
LINE
  8
0
 62
     0
 10
174.115
 20
78.8928
 30
0.0
 11
174.115
 21
64.8917
 31
0.0
  0
LINE
  8
0
 62
     0
 10
174.115
 20
64.8917
 30
0.0
 11
160.116
 21
64.8917
 31
0.0
  0
LINE
  8
0
 62
     0
 10
160.116
 20
64.8917
 30
0.0
 11
160.116
 21
78.8928
 31
0.0
  0
LINE
  8
0
 62
     0
 10
141.066
 20
78.8928
 30
0.0
 11
155.065
 21
78.8928
 31
0.0
  0
LINE
  8
0
 62
     0
 10
155.065
 20
78.8928
 30
0.0
 11
155.065
 21
64.8917
 31
0.0
  0
LINE
  8
0
 62
     0
 10
155.065
 20
64.8917
 30
0.0
 11
141.066
 21
64.8917
 31
0.0
  0
LINE
  8
0
 62
     0
 10
141.066
 20
64.8917
 30
0.0
 11
141.066
 21
78.8928
 31
0.0
  0
LINE
  8
0
 62
     0
 10
117.252
 20
78.8928
 30
0.0
 11
131.253
 21
78.8928
 31
0.0
  0
LINE
  8
0
 62
     0
 10
131.253
 20
78.8928
 30
0.0
 11
131.253
 21
64.8917
 31
0.0
  0
LINE
  8
0
 62
     0
 10
131.253
 20
64.8917
 30
0.0
 11
117.252
 21
64.8917
 31
0.0
  0
LINE
  8
0
 62
     0
 10
117.252
 20
64.8917
 30
0.0
 11
117.252
 21
78.8928
 31
0.0
  0
LINE
  8
0
 62
     0
 10
64.8656
 20
83.6538
 30
0.0
 11
78.8652
 21
83.6538
 31
0.0
  0
LINE
  8
0
 62
     0
 10
78.8652
 20
83.6538
 30
0.0
 11
78.8652
 21
69.6542
 31
0.0
  0
LINE
  8
0
 62
     0
 10
78.8652
 20
69.6542
 30
0.0
 11
64.8656
 21
69.6542
 31
0.0
  0
LINE
  8
0
 62
     0
 10
64.8656
 20
69.6542
 30
0.0
 11
64.8656
 21
83.6538
 31
0.0
  0
LINE
  8
0
 62
     0
 10
45.8156
 20
83.6538
 30
0.0
 11
59.8152
 21
83.6538
 31
0.0
  0
LINE
  8
0
 62
     0
 10
59.8152
 20
83.6538
 30
0.0
 11
59.8152
 21
69.6542
 31
0.0
  0
LINE
  8
0
 62
     0
 10
59.8152
 20
69.6542
 30
0.0
 11
45.8156
 21
69.6542
 31
0.0
  0
LINE
  8
0
 62
     0
 10
45.8156
 20
69.6542
 30
0.0
 11
45.8156
 21
83.6538
 31
0.0
  0
LINE
  8
0
 62
     0
 10
26.7656
 20
83.6538
 30
0.0
 11
40.7652
 21
83.6538
 31
0.0
  0
LINE
  8
0
 62
     0
 10
40.7652
 20
83.6538
 30
0.0
 11
40.7652
 21
69.6542
 31
0.0
  0
LINE
  8
0
 62
     0
 10
40.7652
 20
69.6542
 30
0.0
 11
26.7656
 21
69.6542
 31
0.0
  0
LINE
  8
0
 62
     0
 10
26.7656
 20
69.6542
 30
0.0
 11
26.7656
 21
83.6538
 31
0.0
  0
LINE
  8
0
 62
     0
 10
7.71426
 20
83.6538
 30
0.0
 11
21.7151
 21
83.6538
 31
0.0
  0
LINE
  8
0
 62
     0
 10
21.7151
 20
83.6538
 30
0.0
 11
21.7151
 21
69.6542
 31
0.0
  0
LINE
  8
0
 62
     0
 10
21.7151
 20
69.6542
 30
0.0
 11
7.71426
 21
69.6542
 31
0.0
  0
LINE
  8
0
 62
     0
 10
7.71426
 20
69.6542
 30
0.0
 11
7.71426
 21
83.6538
 31
0.0
  0
LINE
  8
0
 62
     0
 10
369.665
 20
97.9428
 30
0.0
 11
369.665
 21
93.2423
 31
0.0
  0
LINE
  8
0
 62
     0
 10
369.665
 20
93.2423
 30
0.0
 11
368.141
 21
93.2423
 31
0.0
  0
LINE
  8
0
 62
     0
 10
368.141
 20
93.2423
 30
0.0
 11
368.141
 21
96.4724
 31
0.0
  0
LINE
  8
0
 62
     0
 10
368.141
 20
96.4724
 30
0.0
 11
366.416
 21
96.4724
 31
0.0
  0
LINE
  8
0
 62
     0
 10
366.416
 20
96.4724
 30
0.0
 11
366.416
 21
97.3928
 31
0.0
  0
LINE
  8
0
 62
     0
 10
366.416
 20
97.3928
 30
0.0
 11
363.114
 21
97.3928
 31
0.0
  0
LINE
  8
0
 62
     0
 10
363.114
 20
97.3928
 30
0.0
 11
363.114
 21
96.4724
 31
0.0
  0
LINE
  8
0
 62
     0
 10
363.114
 20
96.4724
 30
0.0
 11
361.389
 21
96.4724
 31
0.0
  0
LINE
  8
0
 62
     0
 10
361.389
 20
96.4724
 30
0.0
 11
361.389
 21
93.2423
 31
0.0
  0
LINE
  8
0
 62
     0
 10
361.389
 20
93.2423
 30
0.0
 11
360.564
 21
93.2423
 31
0.0
  0
LINE
  8
0
 62
     0
 10
360.564
 20
93.2423
 30
0.0
 11
360.564
 21
90.442
 31
0.0
  0
LINE
  8
0
 62
     0
 10
360.564
 20
90.442
 30
0.0
 11
361.389
 21
90.442
 31
0.0
  0
LINE
  8
0
 62
     0
 10
361.389
 20
90.442
 30
0.0
 11
361.389
 21
84.1721
 31
0.0
  0
LINE
  8
0
 62
     0
 10
361.389
 20
84.1721
 30
0.0
 11
363.114
 21
84.1721
 31
0.0
  0
LINE
  8
0
 62
     0
 10
363.114
 20
84.1721
 30
0.0
 11
363.114
 21
83.1921
 31
0.0
  0
LINE
  8
0
 62
     0
 10
363.114
 20
83.1921
 30
0.0
 11
366.416
 21
83.1921
 31
0.0
  0
LINE
  8
0
 62
     0
 10
366.416
 20
83.1921
 30
0.0
 11
366.416
 21
84.1721
 31
0.0
  0
LINE
  8
0
 62
     0
 10
366.416
 20
84.1721
 30
0.0
 11
368.141
 21
84.1721
 31
0.0
  0
LINE
  8
0
 62
     0
 10
368.141
 20
84.1721
 30
0.0
 11
368.141
 21
88.6425
 31
0.0
  0
LINE
  8
0
 62
     0
 10
368.141
 20
88.6425
 30
0.0
 11
369.665
 21
88.6425
 31
0.0
  0
LINE
  8
0
 62
     0
 10
369.665
 20
88.6425
 30
0.0
 11
369.665
 21
83.9417
 31
0.0
  0
LINE
  8
0
 62
     0
 10
369.665
 20
83.9417
 30
0.0
 11
383.663
 21
83.9417
 31
0.0
  0
LINE
  8
0
 62
     0
 10
383.663
 20
83.9417
 30
0.0
 11
383.663
 21
88.6425
 31
0.0
  0
LINE
  8
0
 62
     0
 10
383.663
 20
88.6425
 30
0.0
 11
385.191
 21
88.6425
 31
0.0
  0
LINE
  8
0
 62
     0
 10
385.191
 20
88.6425
 30
0.0
 11
385.191
 21
84.1721
 31
0.0
  0
LINE
  8
0
 62
     0
 10
385.191
 20
84.1721
 30
0.0
 11
386.916
 21
84.1721
 31
0.0
  0
LINE
  8
0
 62
     0
 10
386.916
 20
84.1721
 30
0.0
 11
386.916
 21
83.1921
 31
0.0
  0
LINE
  8
0
 62
     0
 10
386.916
 20
83.1921
 30
0.0
 11
390.215
 21
83.1921
 31
0.0
  0
LINE
  8
0
 62
     0
 10
390.215
 20
83.1921
 30
0.0
 11
390.215
 21
84.1721
 31
0.0
  0
LINE
  8
0
 62
     0
 10
390.215
 20
84.1721
 30
0.0
 11
391.94
 21
84.1721
 31
0.0
  0
LINE
  8
0
 62
     0
 10
391.94
 20
84.1721
 30
0.0
 11
391.94
 21
90.442
 31
0.0
  0
LINE
  8
0
 62
     0
 10
391.94
 20
90.442
 30
0.0
 11
392.765
 21
90.442
 31
0.0
  0
LINE
  8
0
 62
     0
 10
392.765
 20
90.442
 30
0.0
 11
392.765
 21
93.2423
 31
0.0
  0
LINE
  8
0
 62
     0
 10
392.765
 20
93.2423
 30
0.0
 11
391.94
 21
93.2423
 31
0.0
  0
LINE
  8
0
 62
     0
 10
391.94
 20
93.2423
 30
0.0
 11
391.94
 21
96.4724
 31
0.0
  0
LINE
  8
0
 62
     0
 10
391.94
 20
96.4724
 30
0.0
 11
390.215
 21
96.4724
 31
0.0
  0
LINE
  8
0
 62
     0
 10
390.215
 20
96.4724
 30
0.0
 11
390.215
 21
97.3928
 31
0.0
  0
LINE
  8
0
 62
     0
 10
390.215
 20
97.3928
 30
0.0
 11
386.916
 21
97.3928
 31
0.0
  0
LINE
  8
0
 62
     0
 10
386.916
 20
97.3928
 30
0.0
 11
386.916
 21
96.4724
 31
0.0
  0
LINE
  8
0
 62
     0
 10
386.916
 20
96.4724
 30
0.0
 11
385.191
 21
96.4724
 31
0.0
  0
LINE
  8
0
 62
     0
 10
385.191
 20
96.4724
 30
0.0
 11
385.191
 21
93.2423
 31
0.0
  0
LINE
  8
0
 62
     0
 10
385.191
 20
93.2423
 30
0.0
 11
383.663
 21
93.2423
 31
0.0
  0
LINE
  8
0
 62
     0
 10
383.663
 20
93.2423
 30
0.0
 11
383.663
 21
97.9428
 31
0.0
  0
LINE
  8
0
 62
     0
 10
383.663
 20
97.9428
 30
0.0
 11
369.665
 21
97.9428
 31
0.0
  0
LINE
  8
0
 62
     0
 10
341.091
 20
97.9428
 30
0.0
 11
355.088
 21
97.9428
 31
0.0
  0
LINE
  8
0
 62
     0
 10
355.088
 20
97.9428
 30
0.0
 11
355.088
 21
83.9417
 31
0.0
  0
LINE
  8
0
 62
     0
 10
355.088
 20
83.9417
 30
0.0
 11
341.091
 21
83.9417
 31
0.0
  0
LINE
  8
0
 62
     0
 10
341.091
 20
83.9417
 30
0.0
 11
341.091
 21
97.9428
 31
0.0
  0
LINE
  8
0
 62
     0
 10
322.041
 20
97.9428
 30
0.0
 11
336.04
 21
97.9428
 31
0.0
  0
LINE
  8
0
 62
     0
 10
336.04
 20
97.9428
 30
0.0
 11
336.04
 21
83.9417
 31
0.0
  0
LINE
  8
0
 62
     0
 10
336.04
 20
83.9417
 30
0.0
 11
322.041
 21
83.9417
 31
0.0
  0
LINE
  8
0
 62
     0
 10
322.041
 20
83.9417
 30
0.0
 11
322.041
 21
97.9428
 31
0.0
  0
LINE
  8
0
 62
     0
 10
302.991
 20
97.9428
 30
0.0
 11
316.99
 21
97.9428
 31
0.0
  0
LINE
  8
0
 62
     0
 10
316.99
 20
97.9428
 30
0.0
 11
316.99
 21
83.9417
 31
0.0
  0
LINE
  8
0
 62
     0
 10
316.99
 20
83.9417
 30
0.0
 11
302.991
 21
83.9417
 31
0.0
  0
LINE
  8
0
 62
     0
 10
302.991
 20
83.9417
 30
0.0
 11
302.991
 21
97.9428
 31
0.0
  0
LINE
  8
0
 62
     0
 10
283.941
 20
97.9428
 30
0.0
 11
297.94
 21
97.9428
 31
0.0
  0
LINE
  8
0
 62
     0
 10
297.94
 20
97.9428
 30
0.0
 11
297.94
 21
83.9417
 31
0.0
  0
LINE
  8
0
 62
     0
 10
297.94
 20
83.9417
 30
0.0
 11
283.941
 21
83.9417
 31
0.0
  0
LINE
  8
0
 62
     0
 10
283.941
 20
83.9417
 30
0.0
 11
283.941
 21
97.9428
 31
0.0
  0
LINE
  8
0
 62
     0
 10
264.891
 20
97.9428
 30
0.0
 11
278.89
 21
97.9428
 31
0.0
  0
LINE
  8
0
 62
     0
 10
278.89
 20
97.9428
 30
0.0
 11
278.89
 21
83.9417
 31
0.0
  0
LINE
  8
0
 62
     0
 10
278.89
 20
83.9417
 30
0.0
 11
264.891
 21
83.9417
 31
0.0
  0
LINE
  8
0
 62
     0
 10
264.891
 20
83.9417
 30
0.0
 11
264.891
 21
97.9428
 31
0.0
  0
LINE
  8
0
 62
     0
 10
245.841
 20
97.9428
 30
0.0
 11
259.84
 21
97.9428
 31
0.0
  0
LINE
  8
0
 62
     0
 10
259.84
 20
97.9428
 30
0.0
 11
259.84
 21
83.9417
 31
0.0
  0
LINE
  8
0
 62
     0
 10
259.84
 20
83.9417
 30
0.0
 11
245.841
 21
83.9417
 31
0.0
  0
LINE
  8
0
 62
     0
 10
245.841
 20
83.9417
 30
0.0
 11
245.841
 21
97.9428
 31
0.0
  0
LINE
  8
0
 62
     0
 10
226.791
 20
97.9428
 30
0.0
 11
240.79
 21
97.9428
 31
0.0
  0
LINE
  8
0
 62
     0
 10
240.79
 20
97.9428
 30
0.0
 11
240.79
 21
83.9417
 31
0.0
  0
LINE
  8
0
 62
     0
 10
240.79
 20
83.9417
 30
0.0
 11
226.791
 21
83.9417
 31
0.0
  0
LINE
  8
0
 62
     0
 10
226.791
 20
83.9417
 30
0.0
 11
226.791
 21
97.9428
 31
0.0
  0
LINE
  8
0
 62
     0
 10
207.741
 20
97.9428
 30
0.0
 11
221.74
 21
97.9428
 31
0.0
  0
LINE
  8
0
 62
     0
 10
221.74
 20
97.9428
 30
0.0
 11
221.74
 21
83.9417
 31
0.0
  0
LINE
  8
0
 62
     0
 10
221.74
 20
83.9417
 30
0.0
 11
207.741
 21
83.9417
 31
0.0
  0
LINE
  8
0
 62
     0
 10
207.741
 20
83.9417
 30
0.0
 11
207.741
 21
97.9428
 31
0.0
  0
LINE
  8
0
 62
     0
 10
188.691
 20
97.9428
 30
0.0
 11
202.69
 21
97.9428
 31
0.0
  0
LINE
  8
0
 62
     0
 10
202.69
 20
97.9428
 30
0.0
 11
202.69
 21
83.9417
 31
0.0
  0
LINE
  8
0
 62
     0
 10
202.69
 20
83.9417
 30
0.0
 11
188.691
 21
83.9417
 31
0.0
  0
LINE
  8
0
 62
     0
 10
188.691
 20
83.9417
 30
0.0
 11
188.691
 21
97.9428
 31
0.0
  0
LINE
  8
0
 62
     0
 10
169.641
 20
97.9428
 30
0.0
 11
183.64
 21
97.9428
 31
0.0
  0
LINE
  8
0
 62
     0
 10
183.64
 20
97.9428
 30
0.0
 11
183.64
 21
83.9417
 31
0.0
  0
LINE
  8
0
 62
     0
 10
183.64
 20
83.9417
 30
0.0
 11
169.641
 21
83.9417
 31
0.0
  0
LINE
  8
0
 62
     0
 10
169.641
 20
83.9417
 30
0.0
 11
169.641
 21
97.9428
 31
0.0
  0
LINE
  8
0
 62
     0
 10
150.591
 20
97.9428
 30
0.0
 11
164.59
 21
97.9428
 31
0.0
  0
LINE
  8
0
 62
     0
 10
164.59
 20
97.9428
 30
0.0
 11
164.59
 21
83.9417
 31
0.0
  0
LINE
  8
0
 62
     0
 10
164.59
 20
83.9417
 30
0.0
 11
150.591
 21
83.9417
 31
0.0
  0
LINE
  8
0
 62
     0
 10
150.591
 20
83.9417
 30
0.0
 11
150.591
 21
97.9428
 31
0.0
  0
LINE
  8
0
 62
     0
 10
131.541
 20
97.9428
 30
0.0
 11
145.54
 21
97.9428
 31
0.0
  0
LINE
  8
0
 62
     0
 10
145.54
 20
97.9428
 30
0.0
 11
145.54
 21
83.9417
 31
0.0
  0
LINE
  8
0
 62
     0
 10
145.54
 20
83.9417
 30
0.0
 11
131.541
 21
83.9417
 31
0.0
  0
LINE
  8
0
 62
     0
 10
131.541
 20
83.9417
 30
0.0
 11
131.541
 21
97.9428
 31
0.0
  0
LINE
  8
0
 62
     0
 10
112.491
 20
97.9428
 30
0.0
 11
126.49
 21
97.9428
 31
0.0
  0
LINE
  8
0
 62
     0
 10
126.49
 20
97.9428
 30
0.0
 11
126.49
 21
83.9417
 31
0.0
  0
LINE
  8
0
 62
     0
 10
126.49
 20
83.9417
 30
0.0
 11
112.491
 21
83.9417
 31
0.0
  0
LINE
  8
0
 62
     0
 10
112.491
 20
83.9417
 30
0.0
 11
112.491
 21
97.9428
 31
0.0
  0
LINE
  8
0
 62
     0
 10
88.6767
 20
97.9428
 30
0.0
 11
102.678
 21
97.9428
 31
0.0
  0
LINE
  8
0
 62
     0
 10
102.678
 20
97.9428
 30
0.0
 11
102.678
 21
83.9417
 31
0.0
  0
LINE
  8
0
 62
     0
 10
102.678
 20
83.9417
 30
0.0
 11
88.6767
 21
83.9417
 31
0.0
  0
LINE
  8
0
 62
     0
 10
88.6767
 20
83.9417
 30
0.0
 11
88.6767
 21
97.9428
 31
0.0
  0
LINE
  8
0
 62
     0
 10
64.8656
 20
102.704
 30
0.0
 11
78.8652
 21
102.704
 31
0.0
  0
LINE
  8
0
 62
     0
 10
78.8652
 20
102.704
 30
0.0
 11
78.8652
 21
88.7042
 31
0.0
  0
LINE
  8
0
 62
     0
 10
78.8652
 20
88.7042
 30
0.0
 11
64.8656
 21
88.7042
 31
0.0
  0
LINE
  8
0
 62
     0
 10
64.8656
 20
88.7042
 30
0.0
 11
64.8656
 21
102.704
 31
0.0
  0
LINE
  8
0
 62
     0
 10
45.8156
 20
102.704
 30
0.0
 11
59.8152
 21
102.704
 31
0.0
  0
LINE
  8
0
 62
     0
 10
59.8152
 20
102.704
 30
0.0
 11
59.8152
 21
88.7042
 31
0.0
  0
LINE
  8
0
 62
     0
 10
59.8152
 20
88.7042
 30
0.0
 11
45.8156
 21
88.7042
 31
0.0
  0
LINE
  8
0
 62
     0
 10
45.8156
 20
88.7042
 30
0.0
 11
45.8156
 21
102.704
 31
0.0
  0
LINE
  8
0
 62
     0
 10
26.7656
 20
102.704
 30
0.0
 11
40.7652
 21
102.704
 31
0.0
  0
LINE
  8
0
 62
     0
 10
40.7652
 20
102.704
 30
0.0
 11
40.7652
 21
88.7042
 31
0.0
  0
LINE
  8
0
 62
     0
 10
40.7652
 20
88.7042
 30
0.0
 11
26.7656
 21
88.7042
 31
0.0
  0
LINE
  8
0
 62
     0
 10
26.7656
 20
88.7042
 30
0.0
 11
26.7656
 21
102.704
 31
0.0
  0
LINE
  8
0
 62
     0
 10
7.71426
 20
102.704
 30
0.0
 11
21.7151
 21
102.704
 31
0.0
  0
LINE
  8
0
 62
     0
 10
21.7151
 20
102.704
 30
0.0
 11
21.7151
 21
88.7042
 31
0.0
  0
LINE
  8
0
 62
     0
 10
21.7151
 20
88.7042
 30
0.0
 11
7.71426
 21
88.7042
 31
0.0
  0
LINE
  8
0
 62
     0
 10
7.71426
 20
88.7042
 30
0.0
 11
7.71426
 21
102.704
 31
0.0
  0
LINE
  8
0
 62
     0
 10
379.19
 20
121.755
 30
0.0
 11
393.188
 21
121.755
 31
0.0
  0
LINE
  8
0
 62
     0
 10
393.188
 20
121.755
 30
0.0
 11
393.188
 21
107.754
 31
0.0
  0
LINE
  8
0
 62
     0
 10
393.188
 20
107.754
 30
0.0
 11
379.19
 21
107.754
 31
0.0
  0
LINE
  8
0
 62
     0
 10
379.19
 20
107.754
 30
0.0
 11
379.19
 21
121.755
 31
0.0
  0
LINE
  8
0
 62
     0
 10
355.378
 20
121.755
 30
0.0
 11
369.376
 21
121.755
 31
0.0
  0
LINE
  8
0
 62
     0
 10
369.376
 20
121.755
 30
0.0
 11
369.376
 21
107.754
 31
0.0
  0
LINE
  8
0
 62
     0
 10
369.376
 20
107.754
 30
0.0
 11
355.378
 21
107.754
 31
0.0
  0
LINE
  8
0
 62
     0
 10
355.378
 20
107.754
 30
0.0
 11
355.378
 21
121.755
 31
0.0
  0
LINE
  8
0
 62
     0
 10
331.566
 20
121.755
 30
0.0
 11
345.565
 21
121.755
 31
0.0
  0
LINE
  8
0
 62
     0
 10
345.565
 20
121.755
 30
0.0
 11
345.565
 21
107.754
 31
0.0
  0
LINE
  8
0
 62
     0
 10
345.565
 20
107.754
 30
0.0
 11
331.566
 21
107.754
 31
0.0
  0
LINE
  8
0
 62
     0
 10
331.566
 20
107.754
 30
0.0
 11
331.566
 21
121.755
 31
0.0
  0
LINE
  8
0
 62
     0
 10
312.516
 20
121.755
 30
0.0
 11
326.515
 21
121.755
 31
0.0
  0
LINE
  8
0
 62
     0
 10
326.515
 20
121.755
 30
0.0
 11
326.515
 21
107.754
 31
0.0
  0
LINE
  8
0
 62
     0
 10
326.515
 20
107.754
 30
0.0
 11
312.516
 21
107.754
 31
0.0
  0
LINE
  8
0
 62
     0
 10
312.516
 20
107.754
 30
0.0
 11
312.516
 21
121.755
 31
0.0
  0
LINE
  8
0
 62
     0
 10
293.466
 20
121.755
 30
0.0
 11
307.465
 21
121.755
 31
0.0
  0
LINE
  8
0
 62
     0
 10
307.465
 20
121.755
 30
0.0
 11
307.465
 21
107.754
 31
0.0
  0
LINE
  8
0
 62
     0
 10
307.465
 20
107.754
 30
0.0
 11
293.466
 21
107.754
 31
0.0
  0
LINE
  8
0
 62
     0
 10
293.466
 20
107.754
 30
0.0
 11
293.466
 21
121.755
 31
0.0
  0
LINE
  8
0
 62
     0
 10
274.416
 20
121.755
 30
0.0
 11
288.415
 21
121.755
 31
0.0
  0
LINE
  8
0
 62
     0
 10
288.415
 20
121.755
 30
0.0
 11
288.415
 21
107.754
 31
0.0
  0
LINE
  8
0
 62
     0
 10
288.415
 20
107.754
 30
0.0
 11
274.416
 21
107.754
 31
0.0
  0
LINE
  8
0
 62
     0
 10
274.416
 20
107.754
 30
0.0
 11
274.416
 21
121.755
 31
0.0
  0
LINE
  8
0
 62
     0
 10
250.602
 20
121.755
 30
0.0
 11
264.603
 21
121.755
 31
0.0
  0
LINE
  8
0
 62
     0
 10
264.603
 20
121.755
 30
0.0
 11
264.603
 21
107.754
 31
0.0
  0
LINE
  8
0
 62
     0
 10
264.603
 20
107.754
 30
0.0
 11
250.602
 21
107.754
 31
0.0
  0
LINE
  8
0
 62
     0
 10
250.602
 20
107.754
 30
0.0
 11
250.602
 21
121.755
 31
0.0
  0
LINE
  8
0
 62
     0
 10
231.552
 20
121.755
 30
0.0
 11
245.553
 21
121.755
 31
0.0
  0
LINE
  8
0
 62
     0
 10
245.553
 20
121.755
 30
0.0
 11
245.553
 21
107.754
 31
0.0
  0
LINE
  8
0
 62
     0
 10
245.553
 20
107.754
 30
0.0
 11
231.552
 21
107.754
 31
0.0
  0
LINE
  8
0
 62
     0
 10
231.552
 20
107.754
 30
0.0
 11
231.552
 21
121.755
 31
0.0
  0
LINE
  8
0
 62
     0
 10
212.502
 20
121.755
 30
0.0
 11
226.503
 21
121.755
 31
0.0
  0
LINE
  8
0
 62
     0
 10
226.503
 20
121.755
 30
0.0
 11
226.503
 21
107.754
 31
0.0
  0
LINE
  8
0
 62
     0
 10
226.503
 20
107.754
 30
0.0
 11
212.502
 21
107.754
 31
0.0
  0
LINE
  8
0
 62
     0
 10
212.502
 20
107.754
 30
0.0
 11
212.502
 21
121.755
 31
0.0
  0
LINE
  8
0
 62
     0
 10
193.452
 20
121.755
 30
0.0
 11
207.453
 21
121.755
 31
0.0
  0
LINE
  8
0
 62
     0
 10
207.453
 20
121.755
 30
0.0
 11
207.453
 21
107.754
 31
0.0
  0
LINE
  8
0
 62
     0
 10
207.453
 20
107.754
 30
0.0
 11
193.452
 21
107.754
 31
0.0
  0
LINE
  8
0
 62
     0
 10
193.452
 20
107.754
 30
0.0
 11
193.452
 21
121.755
 31
0.0
  0
LINE
  8
0
 62
     0
 10
169.641
 20
121.755
 30
0.0
 11
183.64
 21
121.755
 31
0.0
  0
LINE
  8
0
 62
     0
 10
183.64
 20
121.755
 30
0.0
 11
183.64
 21
107.754
 31
0.0
  0
LINE
  8
0
 62
     0
 10
183.64
 20
107.754
 30
0.0
 11
169.641
 21
107.754
 31
0.0
  0
LINE
  8
0
 62
     0
 10
169.641
 20
107.754
 30
0.0
 11
169.641
 21
121.755
 31
0.0
  0
LINE
  8
0
 62
     0
 10
150.591
 20
121.755
 30
0.0
 11
164.59
 21
121.755
 31
0.0
  0
LINE
  8
0
 62
     0
 10
164.59
 20
121.755
 30
0.0
 11
164.59
 21
107.754
 31
0.0
  0
LINE
  8
0
 62
     0
 10
164.59
 20
107.754
 30
0.0
 11
150.591
 21
107.754
 31
0.0
  0
LINE
  8
0
 62
     0
 10
150.591
 20
107.754
 30
0.0
 11
150.591
 21
121.755
 31
0.0
  0
LINE
  8
0
 62
     0
 10
131.541
 20
121.755
 30
0.0
 11
145.54
 21
121.755
 31
0.0
  0
LINE
  8
0
 62
     0
 10
145.54
 20
121.755
 30
0.0
 11
145.54
 21
107.754
 31
0.0
  0
LINE
  8
0
 62
     0
 10
145.54
 20
107.754
 30
0.0
 11
131.541
 21
107.754
 31
0.0
  0
LINE
  8
0
 62
     0
 10
131.541
 20
107.754
 30
0.0
 11
131.541
 21
121.755
 31
0.0
  0
LINE
  8
0
 62
     0
 10
112.491
 20
121.755
 30
0.0
 11
126.49
 21
121.755
 31
0.0
  0
LINE
  8
0
 62
     0
 10
126.49
 20
121.755
 30
0.0
 11
126.49
 21
107.754
 31
0.0
  0
LINE
  8
0
 62
     0
 10
126.49
 20
107.754
 30
0.0
 11
112.491
 21
107.754
 31
0.0
  0
LINE
  8
0
 62
     0
 10
112.491
 20
107.754
 30
0.0
 11
112.491
 21
121.755
 31
0.0
  0
LINE
  8
0
 62
     0
 10
88.6767
 20
121.755
 30
0.0
 11
102.678
 21
121.755
 31
0.0
  0
LINE
  8
0
 62
     0
 10
102.678
 20
121.755
 30
0.0
 11
102.678
 21
107.754
 31
0.0
  0
LINE
  8
0
 62
     0
 10
102.678
 20
107.754
 30
0.0
 11
88.6767
 21
107.754
 31
0.0
  0
LINE
  8
0
 62
     0
 10
88.6767
 20
107.754
 30
0.0
 11
88.6767
 21
121.755
 31
0.0
  0
LINE
  8
0
 62
     0
 10
64.8656
 20
121.755
 30
0.0
 11
78.8652
 21
121.755
 31
0.0
  0
LINE
  8
0
 62
     0
 10
78.8652
 20
121.755
 30
0.0
 11
78.8652
 21
107.754
 31
0.0
  0
LINE
  8
0
 62
     0
 10
78.8652
 20
107.754
 30
0.0
 11
64.8656
 21
107.754
 31
0.0
  0
LINE
  8
0
 62
     0
 10
64.8656
 20
107.754
 30
0.0
 11
64.8656
 21
121.755
 31
0.0
  0
LINE
  8
0
 62
     0
 10
45.8156
 20
121.755
 30
0.0
 11
59.8152
 21
121.755
 31
0.0
  0
LINE
  8
0
 62
     0
 10
59.8152
 20
121.755
 30
0.0
 11
59.8152
 21
107.754
 31
0.0
  0
LINE
  8
0
 62
     0
 10
59.8152
 20
107.754
 30
0.0
 11
45.8156
 21
107.754
 31
0.0
  0
LINE
  8
0
 62
     0
 10
45.8156
 20
107.754
 30
0.0
 11
45.8156
 21
121.755
 31
0.0
  0
LINE
  8
0
 62
     0
 10
26.7656
 20
121.755
 30
0.0
 11
40.7652
 21
121.755
 31
0.0
  0
LINE
  8
0
 62
     0
 10
40.7652
 20
121.755
 30
0.0
 11
40.7652
 21
107.754
 31
0.0
  0
LINE
  8
0
 62
     0
 10
40.7652
 20
107.754
 30
0.0
 11
26.7656
 21
107.754
 31
0.0
  0
LINE
  8
0
 62
     0
 10
26.7656
 20
107.754
 30
0.0
 11
26.7656
 21
121.755
 31
0.0
  0
LINE
  8
0
 62
     0
 10
7.71426
 20
121.755
 30
0.0
 11
21.7151
 21
121.755
 31
0.0
  0
LINE
  8
0
 62
     0
 10
21.7151
 20
121.755
 30
0.0
 11
21.7151
 21
107.754
 31
0.0
  0
LINE
  8
0
 62
     0
 10
21.7151
 20
107.754
 30
0.0
 11
7.71426
 21
107.754
 31
0.0
  0
LINE
  8
0
 62
     0
 10
7.71426
 20
107.754
 30
0.0
 11
7.71426
 21
121.755
 31
0.0
  0
ENDSEC
  0
EOF
